<?xml version="1.0" standalone="no"?>
<!DOCTYPE svg PUBLIC "-//W3C//DTD SVG 1.1//EN" "http://www.w3.org/Graphics/SVG/1.1/DTD/svg11.dtd" >
<svg xmlns="http://www.w3.org/2000/svg">
<metadata>
Created by FontPrep 20130207 at Mon Sep 22 12:26:06 2014
 By Teerasak.Vichadee
Copyright (c) 2008 by Prinya R. nont. All rights reserved.
</metadata>
<defs>
<font id="d1bb6a382fa9d45c875a41fdb9585bec" horiz-adv-x='1024' >
  <font-face 
    font-family="DBHelvethaicaX-MedIt"
    font-weight="500"
    font-style="italic"
    font-stretch="normal"
    units-per-em="2048"
    panose-1="2 0 5 6 9 0 0 2 0 4"
    ascent="1638"
    descent="-410"
    x-height="727"
    cap-height="1000"
    bbox="-876 -670 1843 1638"
    underline-thickness="41"
    underline-position="-232"
    unicode-range="U+0020-F882"
  />
<missing-glyph horiz-adv-x="575" 
d="M164 133q-31 0 -31 51q0 18 15.5 33t34.5 15q30 0 46.5 -16.5t16.5 -32.5q0 -42 -25 -50q-2 -5 -17.5 -19t-26.5 -26t-39 -38t-50 -48h-45v192q0 93 59.5 113.5t87.5 20.5q60 0 101 -33.5t41 -96.5v-161h152v283h38v-318h-266v35h41v166q0 62 -41.5 74t-75 12t-66 -24
t-32.5 -67v-147zM188 156q24 0 23 21q1 21 -23 21t-24 -21t24 -21zM56 396q13 63 72 109t158 46t143.5 -40.5t54.5 -54.5v95h38v-199q-175 50 -336 50q-66 0 -130 -6zM215 440h63q14 -2 32 -4t84 -12t90 -28q-41 79 -109.5 96.5t-95.5 17.5q-107 0 -165 -74q50 4 101 4z
M557 536q-1 38 35 38t36 -38q0 -11 -8 -20.5t-26 -9.5t-27.5 10t-9.5 20zM561 536q-1 -26 31 -26t32 30t-31.5 30t-31.5 -34zM610 551q0 -17 -14 -17l14 -18h-6l-14 18h-4v-18h-6v47h14q16 0 16 -12zM594 536q10 0 10 10t-10 11h-8v-21h8z" />
    <glyph glyph-name="plusminus" unicode="&#x2b;&#x2d;" horiz-adv-x="839" 
d="M471 545l49 231h129l-49 -231h301l-27 -129h-300l-50 -232h-128l48 232h-302l26 129h303zM813 129l-27 -129h-733l27 129h733z" />
    <glyph glyph-name="ellipsis" unicode="&#x2e;&#x2e;&#x2e;" horiz-adv-x="1388" 
d="M832 194l-44 -196h-196l43 196h197zM1294 194l-42 -196h-198l44 196h196zM370 194l-42 -196h-197l43 196h196z" />
    <glyph glyph-name="lessequal" unicode="&#x3c;&#x3d;" horiz-adv-x="893" 
d="M368 565l514 -256l-28 -131l-672 332l25 112l813 334l-29 -132zM842 123l-25 -123h-741l24 123h742z" />
    <glyph glyph-name="greaterequal" unicode="&#x3e;&#x3d;" horiz-adv-x="893" 
d="M250 824l28 132l670 -334l-24 -112l-812 -332l30 131l620 256zM842 123l-25 -123h-741l24 123h742z" />
    <glyph glyph-name="fongmanfunnuthai" unicode="&#xe4f;&#x22;" horiz-adv-x="1038" 
d="M526 100q56 0 99 12t83 33t75 50q70 58 112 145t35 167q-6 122 -106 189q-63 44 -129 44q-150 0 -248 -78q-132 -105 -163 -240q-14 -66 0 -124q25 -120 133 -172q53 -26 109 -26zM579 295q48 0 92 36t56 89t-16 89t-79 36q-51 -1 -85 -27q-86 -67 -69 -146
q17 -77 101 -77zM803 584q53 -70 33 -164q-20 -93 -101 -162q-82 -70 -177 -70q-96 0 -152 69t-36 164t105 164q84 69 180 69q95 0 148 -70zM358 729q158 129 341 129t282 -126q100 -126 63 -314q-24 -115 -106 -222q-119 -149 -306 -203q-58 -15 -120 -15q-122 0 -212 60
q-135 90 -147 266q-13 177 117 336q39 49 88 89zM596 1208h135l-65 -229h-105zM819 1208h137l-63 -229h-107z" />
    <glyph glyph-name="dochadaphinthuthai" unicode="&#xe0e;&#xe3a;" horiz-adv-x="919" 
d="M395 496q0 -22 -6 -44l-94 -452h-250l29 137h82l67 317q16 92 -43 128q70 159 239 234q94 42 192 42q237 0 307 -108q64 -96 30 -244l-168 -795h-164q-21 44 -49 62q-54 33 -130 33q-131 0 -269 -120l35 162q108 94 242 94t202 -50l133 628q17 77 -18 132q-44 61 -168 62
q-125 1 -204 -78q-20 -20 -28 -38q33 -40 33 -102zM670 -344q36 0 54 -9q59 -29 46 -106q-8 -43 -51 -78t-76 -35q-82 0 -100 70t50 124q41 34 77 34z" />
    <glyph glyph-name="topatakphintuthai" unicode="&#xe0f;&#xe3a;" horiz-adv-x="919" 
d="M393 -137q71 71 173 71q52 0 83 -38l131 624q17 77 -18 132q-44 61 -168 62q-125 1 -204 -78q-20 -20 -28 -38q33 -40 33 -102q0 -22 -6 -44l-94 -452h-250l29 137h82l67 317q16 92 -43 128q70 159 239 234q94 42 192 42q237 0 307 -108q64 -96 30 -244l-168 -795h-168
q0 62 -35 89q-15 10 -35 10q-57 0 -90 -66q-8 -17 -12 -33h-141q3 11 3 39t-17 45t-38 17q-67 0 -91 -101h-136q22 110 92 170q70 59 158 59t123 -77zM670 -344q36 0 54 -9q59 -29 46 -106q-8 -43 -51 -78t-76 -35q-82 0 -100 70t50 124q41 34 77 34z" />
    <glyph glyph-name="dochadasarauthai" unicode="&#xe0e;&#xe38;" horiz-adv-x="919" 
d="M395 496q0 -22 -6 -44l-94 -452h-250l29 137h82l67 317q16 92 -43 128q70 159 239 234q94 42 192 42q237 0 307 -108q64 -96 30 -244l-168 -795h-164q-21 44 -49 62q-54 33 -130 33q-131 0 -269 -120l35 162q108 94 242 94t202 -50l133 628q17 77 -18 132q-44 61 -168 62
q-125 1 -204 -78q-20 -20 -28 -38q33 -40 33 -102zM542 -656l42 185h-74l26 129h232l-68 -314h-158z" />
    <glyph glyph-name="topataksarauthai" unicode="&#xe0f;&#xe38;" horiz-adv-x="919" 
d="M393 -137q71 71 173 71q52 0 83 -38l131 624q17 77 -18 132q-44 61 -168 62q-125 1 -204 -78q-20 -20 -28 -38q33 -40 33 -102q0 -22 -6 -44l-94 -452h-250l29 137h82l67 317q16 92 -43 128q70 159 239 234q94 42 192 42q237 0 307 -108q64 -96 30 -244l-168 -795h-168
q0 62 -35 89q-15 10 -35 10q-57 0 -90 -66q-8 -17 -12 -33h-141q3 11 3 39t-17 45t-38 17q-67 0 -91 -101h-136q22 110 92 170q70 59 158 59t123 -77zM542 -656l42 185h-74l26 129h232l-68 -314h-158z" />
    <glyph glyph-name="dochadasarauuthai" unicode="&#xe0e;&#xe39;" horiz-adv-x="919" 
d="M395 496q0 -22 -6 -44l-94 -452h-250l29 137h82l67 317q16 92 -43 128q70 159 239 234q94 42 192 42q237 0 307 -108q64 -96 30 -244l-168 -795h-164q-21 44 -49 62q-54 33 -130 33q-131 0 -269 -120l35 162q108 94 242 94t202 -50l133 628q17 77 -18 132q-44 61 -168 62
q-125 1 -204 -78q-20 -20 -28 -38q33 -40 33 -102zM473 -670q-225 0 -189 199h-73l27 129h233l-25 -114q-16 -82 53 -82q71 0 87 82l24 114h158l-24 -114q-30 -149 -163 -197q-47 -17 -108 -17z" />
    <glyph glyph-name="topataksarauuthai" unicode="&#xe0f;&#xe39;" horiz-adv-x="919" 
d="M393 -137q71 71 173 71q52 0 83 -38l131 624q17 77 -18 132q-44 61 -168 62q-125 1 -204 -78q-20 -20 -28 -38q33 -40 33 -102q0 -22 -6 -44l-94 -452h-250l29 137h82l67 317q16 92 -43 128q70 159 239 234q94 42 192 42q237 0 307 -108q64 -96 30 -244l-168 -795h-168
q0 62 -35 89q-15 10 -35 10q-57 0 -90 -66q-8 -17 -12 -33h-141q3 11 3 39t-17 45t-38 17q-67 0 -91 -101h-136q22 110 92 170q70 59 158 59t123 -77zM473 -670q-225 0 -189 199h-73l27 129h233l-25 -114q-16 -82 53 -82q71 0 87 82l24 114h158l-24 -114q-30 -149 -163 -197
q-47 -17 -108 -17z" />
    <glyph glyph-name=".notdef" horiz-adv-x="575" 
d="M164 133q-31 0 -31 51q0 18 15.5 33t34.5 15q30 0 46.5 -16.5t16.5 -32.5q0 -42 -25 -50q-2 -5 -17.5 -19t-26.5 -26t-39 -38t-50 -48h-45v192q0 93 59.5 113.5t87.5 20.5q60 0 101 -33.5t41 -96.5v-161h152v283h38v-318h-266v35h41v166q0 62 -41.5 74t-75 12t-66 -24
t-32.5 -67v-147zM188 156q24 0 23 21q1 21 -23 21t-24 -21t24 -21zM56 396q13 63 72 109t158 46t143.5 -40.5t54.5 -54.5v95h38v-199q-175 50 -336 50q-66 0 -130 -6zM215 440h63q14 -2 32 -4t84 -12t90 -28q-41 79 -109.5 96.5t-95.5 17.5q-107 0 -165 -74q50 4 101 4z
M557 536q-1 38 35 38t36 -38q0 -11 -8 -20.5t-26 -9.5t-27.5 10t-9.5 20zM561 536q-1 -26 31 -26t32 30t-31.5 30t-31.5 -34zM610 551q0 -17 -14 -17l14 -18h-6l-14 18h-4v-18h-6v47h14q16 0 16 -12zM594 536q10 0 10 10t-10 11h-8v-21h8z" />
    <glyph glyph-name=".null" 
 />
    <glyph glyph-name="nonmarkingreturn" horiz-adv-x="395" 
 />
    <glyph glyph-name="space" unicode=" " horiz-adv-x="348" 
 />
    <glyph glyph-name="exclam" unicode="!" horiz-adv-x="518" 
d="M370 274h-106l52 412l65 314h180l-65 -314zM398 190l-40 -190h-198l38 190h200z" />
    <glyph glyph-name="quotedbl" unicode="&#x22;" horiz-adv-x="612" 
d="M473 1000l-77 -365h-120l78 365h119zM682 1000l-78 -365h-118l77 365h119z" />
    <glyph glyph-name="numbersign" unicode="#" horiz-adv-x="821" 
d="M110 280l30 136h151l57 168h-137l29 133h156l100 283h135l-101 -283h134l98 283h137l-98 -283h121l-29 -133h-137l-60 -168h121l-29 -136h-141l-98 -280h-139l100 280h-129l-101 -280h-136l98 280h-132zM428 416h131l57 168h-128z" />
    <glyph glyph-name="dollar" unicode="$" horiz-adv-x="809" 
d="M536 868q-122 -27 -145 -135q-11 -54 10.5 -79t80.5 -42zM500 127q129 18 162 149q21 96 -103 134zM735 712q0 124 -79 150l-62 -284q114 -21 190.5 -96t49.5 -199q-28 -124 -128 -207.5t-239 -95.5l-25 -117h-120l26 119q-136 18 -199 108t-45 246h166
q-16 -86 13 -137.5t96 -65.5l65 309q-141 42 -197.5 102t-30.5 179t126 202t226 95l20 96h120l-20 -96q213 -35 211 -308h-164z" />
    <glyph glyph-name="percent" unicode="%" horiz-adv-x="1409" 
d="M1310 1020l-836 -1040h-166l839 1040h163zM1162 574q232 0 174 -292q-41 -197 -137.5 -243.5t-161.5 -46.5q-123 0 -164 78t-15 208q42 205 139 250.5t165 45.5zM1153 165.5q38 61.5 48 153.5t-11.5 117t-47.5 25t-43 -8.5t-31.5 -22t-25 -32t-19 -38.5t-14 -41t-9.5 -39
t-7 -37t-3.5 -39t2 -38t15.5 -40t61 -22q47 0 85 61.5zM774 827q0 -53 -10 -101t-23.5 -84.5t-42.5 -86.5t-92 -90.5t-137 -40.5q-131 0 -178 92t23 291t282 199q117 0 147.5 -63t30.5 -116zM488 536q53 0 87 56.5t45 118.5t12.5 122t-66.5 60q-60 0 -104 -74t-46 -163.5
t22 -104.5t50 -15z" />
    <glyph glyph-name="ampersand" unicode="&#x26;" horiz-adv-x="915" 
d="M506.5 818.5q-55.5 -37.5 -18 -105t49.5 -85.5q93 57 114.5 87.5t25.5 52.5t1 37t-20 33t-57 18t-95.5 -37.5zM420 121q100 0 192 92l-158 241q-86 -45 -130 -86t-54 -89q-25 -113 39.5 -135.5t110.5 -22.5zM616 991q108 0 175.5 -56.5t44.5 -156.5q-32 -152 -230 -254
l106 -168q28 51 52 130h150q-12 -32 -36.5 -98t-83.5 -150l164 -238h-204l-72 106q-126 -122 -310 -122q-237 0 -258.5 110t-9.5 168q21 106 89.5 169t193.5 126q-52 89 -56 137.5t4 86.5q18 84 95.5 147t185.5 63z" />
    <glyph glyph-name="quotesingle" unicode="'" horiz-adv-x="405" 
d="M473 1000l-77 -365h-120l78 365h119z" />
    <glyph glyph-name="parenleft" unicode="(" horiz-adv-x="401" 
d="M223 -272q-71 164 -95 322t14 327q77 358 358 647h137q-198 -239 -283 -494t-72 -445.5t78 -356.5h-137z" />
    <glyph glyph-name="parenright" unicode=")" horiz-adv-x="401" 
d="M-76 -272q318 384 340 683t-5 415t-61 198h138q162 -290 83 -650q-37 -170 -125 -321t-234 -325h-136z" />
    <glyph glyph-name="asterisk" unicode="*" horiz-adv-x="528" 
d="M652 914l20 -103l-158 -51l64 -123l-105 -61l-59 124l-113 -124l-82 61l113 123l-132 51l58 103l133 -52l31 148h110l-30 -148z" />
    <glyph glyph-name="plus" unicode="+" horiz-adv-x="860" 
d="M889 442l-27 -133h-299l-65 -301h-134l66 301h-301l27 133h300l66 304h134l-66 -304h299z" />
    <glyph glyph-name="comma" unicode="," horiz-adv-x="405" 
d="M342 194l-35 -161q-29 -138 -111 -188t-136 -66l22 115q60 19 80 54.5t22 49.5h-82l44 196h196z" />
    <glyph glyph-name="hyphen" unicode="-" horiz-adv-x="663" 
d="M692 442l-26 -133h-537l27 133h536z" />
    <glyph glyph-name="period" unicode="." horiz-adv-x="405" 
d="M342 194l-43 -196h-197l44 196h196z" />
    <glyph glyph-name="slash" unicode="/" horiz-adv-x="528" 
d="M764 1024l-637 -1044h-149l630 1044h156z" />
    <glyph glyph-name="zero" unicode="0" horiz-adv-x="792" 
d="M596 994q72 0 117 -13t76 -36t50 -55t32 -80.5t6 -153.5t-39 -223t-100 -283.5t-347 -165.5q-301 0 -280.5 227.5t50 337.5t53.5 166t58 106.5t81 88.5t109 61t134 23zM422 129q44 0 79 17.5t89 77t92.5 275t5.5 283.5t-112 68q-191 0 -240.5 -263t-44.5 -314t18.5 -80
t41 -46.5t71.5 -17.5z" />
    <glyph glyph-name="one" unicode="1" horiz-adv-x="792" 
d="M272 790q125 7 176.5 31.5t84.5 60t57 95.5h143l-207 -977h-162l146 688q-96 -41 -270 -43z" />
    <glyph glyph-name="two" unicode="2" horiz-adv-x="792" 
d="M829.5 909.5q77.5 -79.5 46.5 -217.5q-19 -88 -69 -152.5t-112 -107t-122 -74.5q-141 -76 -209.5 -120.5t-97.5 -91.5h488l-31 -146h-690q49 167 138.5 252.5t146 120.5t110.5 65q139 79 200 129t76 127q22 105 -37 127.5t-99 22.5t-95 -29.5t-84 -96t-35 -110.5h-164
q20 165 139 273t271 108t229.5 -79.5z" />
    <glyph glyph-name="three" unicode="3" horiz-adv-x="792" 
d="M489 442h-26q-26 0 -35.5 -1t-21.5 -1l28 136h56q109 0 157 65t32 134t-122 69q-146 0 -195 -201h-168q57 243 186.5 294.5t203.5 51.5q149 0 222.5 -73t43.5 -210q-22 -111 -142 -184q132 -54 93 -236q-28 -136 -119 -203.5t-134.5 -79t-74.5 -16.5t-103 -5t-195 44
t-69 296h168q-28 -144 30 -171.5t101 -27.5t121 24.5t102 137.5q24 114 -43.5 135.5t-95.5 21.5z" />
    <glyph glyph-name="four" unicode="4" horiz-adv-x="792" 
d="M836 356l-31 -151h-133l-44 -205h-161l43 205h-432l30 143l582 629h146l-134 -621h134zM614 700q-42 -43 -81 -85t-79 -84.5t-81 -85.5t-84 -89h251z" />
    <glyph glyph-name="five" unicode="5" horiz-adv-x="792" 
d="M538 670q161 0 237 -91t43 -244t-150 -250t-275 -97t-235 82.5t-50 230.5h164q-13 -119 46.5 -145.5t98.5 -26.5q81 0 144 52.5t84 152.5q29 134 -41 163t-106 29t-74 -10t-125 -78l-141 4l212 535h531l-31 -143h-399l-82 -201q66 37 149 37z" />
    <glyph glyph-name="six" unicode="6" horiz-adv-x="792" 
d="M514 510q-85 0 -144.5 -53.5t-78.5 -138.5q-26 -129 37.5 -159t105.5 -30q126 0 176.5 91.5t44 167.5t-51.5 99t-89 23zM330 572q106 84 247 84t217 -108t0.5 -302.5t-203 -228t-199.5 -33.5t-125 21t-99.5 71t-53 185.5t76.5 385.5t225 298.5t212 48.5q136 0 200 -71
t48 -208h-164q11 131 -120 131q-182 0 -262 -274z" />
    <glyph glyph-name="seven" unicode="7" horiz-adv-x="792" 
d="M920 852q-250 -200 -383 -451t-173 -401h-182q126 459 530 826h-480l32 151h682z" />
    <glyph glyph-name="eight" unicode="8" horiz-adv-x="792" 
d="M427 129q81 0 140.5 46t73.5 116t-29.5 114.5t-117.5 44.5q-126 0 -182 -80t-35.5 -160.5t150.5 -80.5zM398 -16q-247 0 -278.5 117t-15.5 195q35 164 193 236q-92 67 -65 194t132.5 197.5t247.5 70.5q74 0 180.5 -44t71.5 -221q-28 -131 -147 -195q131 -74 98 -228
q-32 -154 -149.5 -238t-267.5 -84zM635 628q48 36 56 81q27 137 -115 137q-103 0 -136.5 -45.5t-39.5 -77.5t1 -56.5t32.5 -49.5t89.5 -25t112 36z" />
    <glyph glyph-name="nine" unicode="9" horiz-adv-x="792" 
d="M484 467q44 0 81 15t65.5 41.5t48 61.5t27.5 75q17 84 -20.5 136t-119.5 52t-158 -67.5t-67.5 -167.5t54 -123t89.5 -23zM670 406q-115 -84 -252 -84t-203 92.5t-38 231.5t134.5 243.5t290.5 104.5q292 0 284 -224t-45.5 -339.5t-121.5 -281t-353 -165.5q-200 0 -226 104
t-17 174h163q-15 -131 120 -131q178 0 264 275z" />
    <glyph glyph-name="colon" unicode=":" horiz-adv-x="405" 
d="M454 727l-40 -197h-197l41 197h196zM342 194l-43 -196h-197l44 196h196z" />
    <glyph glyph-name="semicolon" unicode=";" horiz-adv-x="405" 
d="M342 194l-35 -161q-29 -138 -111 -188t-136 -66l22 115q60 19 80 54.5t22 49.5h-82l44 196h196zM454 727l-40 -197h-197l41 197h196z" />
    <glyph glyph-name="less" unicode="&#x3c;" horiz-adv-x="913" 
d="M346 379l508 -254l-28 -135l-674 332l24 116l818 334l-32 -137z" />
    <glyph glyph-name="equal" unicode="=" horiz-adv-x="854" 
d="M98 172l29 129h727l-28 -129h-728zM158 450l28 130h728l-30 -130h-726z" />
    <glyph glyph-name="greater" unicode="&#x3e;" horiz-adv-x="913" 
d="M217 635l31 137l674 -334l-25 -116l-817 -332l28 135l619 254z" />
    <glyph glyph-name="question" unicode="?" horiz-adv-x="823" 
d="M568 190l-40 -190h-198l38 190h200zM865.5 946q69.5 -78 42.5 -213q-24 -106 -90.5 -159.5t-91.5 -72.5q-60 -46 -96.5 -84.5t-47.5 -94.5l-17 -74h-163l18 86q24 99 89 154.5t88 74.5t94.5 78t50 149t-119.5 90q-128 0 -168 -89t-48 -133h-164q28 161 143.5 263.5
t262.5 102.5q148 0 217.5 -78z" />
    <glyph glyph-name="at" unicode="@" horiz-adv-x="1163" 
d="M610 690q-24 0 -48.5 -11t-54.5 -37t-53.5 -82t-23.5 -92q0 -58 27 -87t59 -29t54 11.5t49.5 38t52 83.5t24.5 91t-5.5 51t-16 31t-25.5 23t-39 9zM314 448q0 42 9 84t38 101.5t96 108t158 48.5q92 0 127 -84l22 66h104l-106 -354q-23 -82 24 -82q63 0 120.5 75t57.5 166
q0 164 -104.5 250.5t-265.5 86.5t-278.5 -121t-117.5 -293t121 -290t291 -118q223 0 336 134h131q-165 -236 -469 -236q-225 0 -380.5 148t-155.5 366t155 367t365 149q209 0 352.5 -123t143.5 -293t-117.5 -264.5t-237.5 -87.5q-56 4 -92 55q-79 -59 -131 -59t-86 15.5
t-58.5 42.5t-38 63.5t-13.5 78.5z" />
    <glyph glyph-name="A" unicode="A" horiz-adv-x="964" 
d="M344 280q-49 -80 -160 -280h-184l594 1000h192l178 -1000h-198l-41 280h-381zM698 434l-53 367l-207 -367h260z" />
    <glyph glyph-name="B" unicode="B" horiz-adv-x="964" 
d="M602 150q120 0 156 58.5t44 96.5q14 71 -34.5 101t-130.5 30h-273l-61 -286h299zM710 1000q231 0 286 -75.5t35 -163.5q-19 -88 -56 -140.5t-99 -88.5q137 -66 99 -235q-25 -116 -129.5 -206.5t-255.5 -90.5h-494l211 1000h403zM631 588q100 0 139.5 24.5t55 49
t22.5 56.5t5.5 55t-13 43t-47.5 26t-109 6h-234l-52 -260h233z" />
    <glyph glyph-name="C" unicode="C" horiz-adv-x="1016" 
d="M924 678q0 194 -204 194t-300 -156.5t-103.5 -308.5t65.5 -215t179 -63q174 0 235.5 104.5t77.5 162.5h176q-132 -414 -530 -414q-308 0 -354.5 183t-13.5 331q50 231 210 378.5t390 147.5q262 0 309 -129t43 -215h-180z" />
    <glyph glyph-name="D" unicode="D" horiz-adv-x="991" 
d="M662 1000q366 0 394 -178t2 -301q-110 -521 -608 -521h-354l211 1000h355zM492 150q234 0 302 136t86 218q37 170 -18 257t-219 87h-193l-147 -698h189z" />
    <glyph glyph-name="E" unicode="E" horiz-adv-x="860" 
d="M1030 1000l-32 -152h-548l-52 -260h507l-33 -152h-508l-61 -286h549l-31 -150h-725l211 1000h723z" />
    <glyph glyph-name="F" unicode="F" horiz-adv-x="809" 
d="M996 1000l-34 -152h-512l-52 -260h446l-33 -152h-447l-92 -436h-176l211 1000h689z" />
    <glyph glyph-name="G" unicode="G" horiz-adv-x="1067" 
d="M756 1022q246 0 310 -113t52 -239h-174q7 202 -221 202q-210 0 -308 -166.5t-99.5 -308.5t74.5 -205t158 -63q214 0 283 105.5t83 161.5h-314l31 151h477l-114 -547h-126l-10 92q-145 -110 -324 -110q-224 0 -344.5 171t-14.5 428.5t264 349t317 91.5z" />
    <glyph glyph-name="H" unicode="H" horiz-adv-x="1016" 
d="M484 1000l-86 -412h470l86 412h176l-210 -1000h-176l92 436h-472l-92 -436h-176l211 1000h177z" />
    <glyph glyph-name="I" unicode="I" horiz-adv-x="397" 
d="M498 1000l-212 -1000h-176l212 1000h176z" />
    <glyph glyph-name="J" unicode="J" horiz-adv-x="733" 
d="M328 -20q-317 0 -252 302l16 76h180l-14 -61q-17 -82 -3.5 -113t36.5 -43t63 -12q74 0 111.5 39t52.5 110l154 722h176l-156 -734q-44 -198 -163 -242t-201 -44z" />
    <glyph glyph-name="K" unicode="K" horiz-adv-x="966" 
d="M484 1000l-95 -447l543 447h232l-512 -408l308 -592h-212l-244 471q-42 -32 -80 -64.5t-80 -64.5l-72 -342h-176l211 1000h177z" />
    <glyph glyph-name="L" unicode="L" horiz-adv-x="776" 
d="M484 1000l-181 -850h498l-31 -150h-674l211 1000h177z" />
    <glyph glyph-name="M" unicode="M" horiz-adv-x="1216" 
d="M1096 721l-412 -721h-152l-106 723l-154 -723h-176l211 1000h235l110 -783l442 783h237l-211 -1000h-176z" />
    <glyph glyph-name="N" unicode="N" horiz-adv-x="1020" 
d="M721 0l-293 740l-156 -740h-176l211 1000h201l293 -746l157 746h176l-210 -1000h-203z" />
    <glyph glyph-name="O" unicode="O" horiz-adv-x="1069" 
d="M1068 894.5q80 -127.5 80 -258.5t-71 -303.5t-228.5 -261.5t-320.5 -89q-237 0 -332 149.5t-48 369.5t207 370.5t396 150.5q237 0 317 -127.5zM560 129q212 0 307 158t101.5 306.5t-67.5 213.5t-184 65q-158 0 -278 -127.5t-128 -306.5t66 -244t183 -65z" />
    <glyph glyph-name="P" unicode="P" horiz-adv-x="913" 
d="M756 1000q241 0 259.5 -116t2.5 -189q-32 -147 -130.5 -225.5t-261.5 -76.5h-272l-82 -393h-176l211 1000h449zM678 848h-228l-63 -306h227q195 -4 230 152q16 75 -24.5 114.5t-141.5 39.5z" />
    <glyph glyph-name="Q" unicode="Q" horiz-adv-x="1069" 
d="M817 232q104 100 138 260t-21 270t-215 110t-280 -127.5t-128 -306.5t66 -244t159 -65t130 15l-76 75l120 115zM750 1022q238 0 318 -127.5t80 -249t-51.5 -264.5t-174.5 -254l112 -109l-118 -116l-138 133q-114 -53 -223 -53t-173.5 19t-134.5 70.5t-108.5 201t50 360.5
t246.5 300t315 89z" />
    <glyph glyph-name="R" unicode="R" horiz-adv-x="964" 
d="M635 557q145 0 199 67t43 145.5t-129 78.5h-298l-61 -291h246zM740 57q0 29 13.5 116.5t7 128.5t-26 72.5t-82.5 35.5h-294l-86 -410h-176l211 1000h481q153 0 223.5 -71.5t42.5 -201.5q-36 -177 -176 -243q77 -54 65.5 -148t-13.5 -119t-6 -52.5t-3 -72.5t39 -92h-200
q-20 28 -20 57z" />
    <glyph glyph-name="S" unicode="S" horiz-adv-x="913" 
d="M478.5 838q-63.5 -34 -77.5 -100t39 -93t133 -45q81 -18 125 -28t108.5 -34.5t106 -85.5t19.5 -168q-43 -201 -232 -260.5t-383 -27.5t-203.5 160t5.5 196h167q-24 -115 36 -169t195 -54t183 52.5t57 94.5q16 74 -43.5 105.5t-143.5 48.5t-126 27.5t-80 24.5t-69 34
t-51 48.5t-27 67t4 89.5t46 113.5t137.5 125t261.5 62.5q258 0 289 -123t16 -213h-168q14 149 -57.5 167.5t-137.5 18.5t-129.5 -34z" />
    <glyph glyph-name="T" unicode="T" horiz-adv-x="813" 
d="M190 848l33 152h789l-33 -152h-309l-178 -848h-176l178 848h-304z" />
    <glyph glyph-name="U" unicode="U" horiz-adv-x="1028" 
d="M514 -20q-206 0 -294.5 95.5t-45.5 290.5l133 634h177l-134 -634q-51 -237 199 -237q234 0 285 237l132 634h177l-133 -634q-59 -287 -227.5 -336.5t-268.5 -49.5z" />
    <glyph glyph-name="V" unicode="V" horiz-adv-x="893" 
d="M346 0l-135 1000h193l90 -783l424 783h186l-564 -1000h-194z" />
    <glyph glyph-name="W" unicode="W" horiz-adv-x="1294" 
d="M416 270l346 730h190l39 -734l336 734h179l-480 -1000h-184l-44 750l-360 -750h-180l-47 1000h182z" />
    <glyph glyph-name="X" unicode="X" horiz-adv-x="901" 
d="M230 1000h212l146 -351l303 351h201l-430 -486l239 -514h-215l-160 366l-323 -366h-203l450 516z" />
    <glyph glyph-name="Y" unicode="Y" horiz-adv-x="948" 
d="M563 0h-178l84 402l-258 598h213l176 -430l352 430h207l-512 -596z" />
    <glyph glyph-name="Z" unicode="Z" horiz-adv-x="927" 
d="M813 848h-537l33 152h762l-29 -140l-730 -710h598l-32 -150h-829l29 137z" />
    <glyph glyph-name="bracketleft" unicode="[" horiz-adv-x="385" 
d="M436 891l-219 -1031h127l-28 -132h-288l277 1296h287l-29 -133h-127z" />
    <glyph glyph-name="backslash" unicode="\" horiz-adv-x="528" 
d="M354 1024l186 -1044h-151l-191 1044h156z" />
    <glyph glyph-name="bracketright" unicode="]" horiz-adv-x="385" 
d="M198 891l30 133h286l-276 -1296h-285l29 132h124l220 1031h-128z" />
    <glyph glyph-name="asciicircum" unicode="^" horiz-adv-x="854" 
d="M704 987l176 -610h-128l-142 487l-340 -487h-137l437 610h134z" />
    <glyph glyph-name="underscore" unicode="_" horiz-adv-x="723" 
d="M692 -94l-24 -117h-701l25 117h700z" />
    <glyph glyph-name="grave" unicode="`" horiz-adv-x="397" 
d="M448 1024l80 -207h-128l-142 207h190z" />
    <glyph glyph-name="a" unicode="a" horiz-adv-x="766" 
d="M366 129q82 0 138 41.5t66 89.5l20 92q-32 -12 -102 -29q-124 -30 -173.5 -50.5t-60.5 -73.5q-11 -52 31.5 -61t80.5 -9zM735.5 134.5q10.5 1.5 20.5 5.5t26 10l-28 -134q-53 -32 -109 -32q-96 0 -103 80q-109 -80 -247 -80q-181 0 -204 77t-12 129t30 86t45 57.5t59 39
t70 26.5t77 19t76 16t66.5 15.5t72.5 22.5t49 44q12 52 -20 67t-79 15q-86 0 -127 -25t-60 -98h-168q66 269 381 269q230 0 242.5 -84t2.5 -128l-75 -354q-8 -45 -2 -45t16.5 1.5z" />
    <glyph glyph-name="b" unicode="b" horiz-adv-x="844" 
d="M559 606q-99 0 -161.5 -72.5t-79.5 -165.5q-35 -161 29.5 -199t118.5 -38q100 0 159 70.5t79 173.5q32 153 -30 192t-115 39zM614 754q168 0 233.5 -111.5t32.5 -274.5q-56 -265 -197 -324.5t-229 -59.5q-132 0 -194 90l-14 -74h-168l211 1000h167l-71 -336
q102 90 229 90z" />
    <glyph glyph-name="c" unicode="c" horiz-adv-x="766" 
d="M544 744q227 0 260.5 -101t25.5 -174h-168q0 105 -50 117t-94 12q-93 0 -154.5 -69t-83.5 -175q-32 -152 30 -188.5t112 -36.5q147 0 202 157h172q-118 -302 -405 -302q-173 0 -242.5 101.5t-36.5 268.5q59 270 206.5 330t225.5 60z" />
    <glyph glyph-name="d" unicode="d" horiz-adv-x="844" 
d="M363.5 522q-77.5 -84 -77.5 -237.5t144 -153.5q102 0 176.5 79t83.5 214.5t-53.5 158.5t-106.5 23q-89 0 -166.5 -84zM352 -16q-59 0 -117 30t-105 107.5t-13 242.5t149.5 277.5t282.5 112.5q94 0 134.5 -33t54.5 -57l71 336h168l-211 -1000h-168l14 74q-85 -74 -143 -82
t-117 -8z" />
    <glyph glyph-name="e" unicode="e" horiz-adv-x="766" 
d="M392 557.5q-57 -40.5 -85 -105.5h357q0 96 -56 121t-107 25q-52 0 -109 -40.5zM430 129q134 0 192 123h164q-110 -268 -390 -268q-180 0 -248.5 104.5t-32.5 275.5q36 172 158 276t291 104t231 -131t14 -306h-535q-20 -122 44 -150t112 -28z" />
    <glyph glyph-name="f" unicode="f" horiz-adv-x="469" 
d="M578 1032q46 0 86 -18l-33 -152q-33 20 -71 20q-37 0 -56.5 -13t-26.5 -45l-21 -97h132l-33 -155h-131l-121 -572h-168l121 572h-110l32 155h111l23 103q40 202 266 202z" />
    <glyph glyph-name="g" unicode="g" horiz-adv-x="819" 
d="M549 744q118 0 174 -74l12 57h160l-145 -680q-71 -356 -434 -356q-119 0 -202 62.5t-63 186.5h166q-7 -51 36 -80.5t99 -29.5q103 0 159.5 56.5t80.5 166.5l4 15q-103 -76 -203 -76q-179 0 -256 121t4 336.5t211 255t197 39.5zM418 135q95 0 164.5 82t79 210t-48 149.5
t-99.5 21.5q-85 0 -144 -64.5t-81 -159.5q-22 -96 -2.5 -146t49.5 -71.5t82 -21.5z" />
    <glyph glyph-name="h" unicode="h" horiz-adv-x="794" 
d="M634 746q52 0 139 -38.5t44 -234.5l-100 -473h-168l103 484q21 114 -95 114q-133 0 -175 -75t-50 -113l-86 -410h-168l211 1000h167l-69 -332q105 78 247 78z" />
    <glyph glyph-name="i" unicode="i" horiz-adv-x="352" 
d="M414 727l-154 -727h-168l154 727h168zM264 815l39 185h168l-39 -185h-168z" />
    <glyph glyph-name="j" unicode="j" horiz-adv-x="352" 
d="M-13 -142h31q43 0 58 74l170 795h168l-172 -813q-46 -207 -242 -207q-51 0 -82 7l31 149q35 -5 38 -5zM264 815l39 185h168l-39 -185h-168z" />
    <glyph glyph-name="k" unicode="k" horiz-adv-x="766" 
d="M454 1000l-112 -535l332 262h223l-352 -271l209 -456h-203l-155 340l-97 -72l-55 -268h-166l211 1000h165z" />
    <glyph glyph-name="l" unicode="l" horiz-adv-x="352" 
d="M471 1000l-211 -1000h-168l211 1000h168z" />
    <glyph glyph-name="m" unicode="m" horiz-adv-x="1204" 
d="M610 742q131 0 178 -95q101 95 232 95q191 0 209.5 -82.5t5.5 -141.5l-109 -518h-168l101 479q26 117 -76 117q-50 0 -117.5 -22.5t-85.5 -129.5l-94 -444h-168l98 467q14 64 -3.5 96.5t-70.5 32.5q-87 0 -139 -50.5t-63 -101.5l-94 -444h-168l154 727h161l-14 -71
q100 86 231 86z" />
    <glyph glyph-name="n" unicode="n" horiz-adv-x="794" 
d="M377 652q99 90 236 90q262 0 202 -273l-98 -469h-166l101 482q12 54 -13 84t-77 30q-94 0 -153.5 -53t-76.5 -135l-86 -408h-168l154 727h161z" />
    <glyph glyph-name="o" unicode="o" horiz-adv-x="817" 
d="M568 744q92 0 185.5 -44.5t111.5 -191.5t-63 -292.5t-192.5 -188.5t-203.5 -43t-156 29t-99.5 80t-49.5 159.5t66.5 255.5t194.5 191.5t206 44.5zM535 598q-84 0 -155 -64t-94 -173t20 -170.5t129 -61.5q134 0 184.5 87.5t62.5 144.5q23 111 -20 174t-127 63z" />
    <glyph glyph-name="p" unicode="p" horiz-adv-x="844" 
d="M710 387q0 99 -23.5 154t-121.5 55q-152 0 -220 -146t-28 -237.5t138 -91.5t176.5 83.5t78.5 182.5zM618 744q168 0 232.5 -109.5t27.5 -276.5q-49 -225 -181.5 -304.5t-255.5 -79.5t-183 90l-72 -336h-168l214 999h168l-17 -73q104 90 235 90z" />
    <glyph glyph-name="q" unicode="q" horiz-adv-x="844" 
d="M596.5 190.5q62.5 69.5 77.5 141.5q55 264 -146 264q-96 0 -155 -69t-81 -168t12 -168.5t132 -69.5t160.5 69.5zM540 744q136 0 195 -90l17 73h168l-214 -999h-168l72 336q-94 -90 -229 -90q-221 0 -253.5 139t-13.5 232q57 277 197.5 338t228.5 61z" />
    <glyph glyph-name="r" unicode="r" horiz-adv-x="493" 
d="M393 727l-18 -90q57 57 115 81t149 24l-35 -164q-195 0 -236.5 -97t-53.5 -157l-68 -324h-168l154 727h161z" />
    <glyph glyph-name="s" unicode="s" horiz-adv-x="715" 
d="M496 744q242 0 255.5 -105t6.5 -155h-168q11 89 -41.5 102.5t-76.5 13.5t-59 -4.5t-56 -24t-25 -37.5q-7 -31 27 -47t116 -37l49 -12q114 -28 170.5 -74t36.5 -141q-51 -239 -377 -239q-224 0 -254 100t-18 176h168q-20 -133 136 -133q150 0 167 80q7 40 -33.5 59
t-96.5 31q-55 12 -88 21t-119 46t-61 156q23 112 122 168t219 56z" />
    <glyph glyph-name="t" unicode="t" horiz-adv-x="459" 
d="M316 0q-110 0 -145.5 37.5t-12.5 142.5l84 392h-111l33 155h110l46 215h166l-46 -215h134l-34 -155h-132l-82 -384q-6 -24 4.5 -31t50.5 -7h78l-31 -150h-112z" />
    <glyph glyph-name="u" unicode="u" horiz-adv-x="798" 
d="M388 133q97 0 155.5 52t74.5 137l86 405h170l-155 -729h-164l15 72q-103 -86 -224 -86q-220 0 -224 107t9 167l101 469h172l-103 -483q-11 -52 12 -81.5t75 -29.5z" />
    <glyph glyph-name="v" unicode="v" horiz-adv-x="745" 
d="M286 0l-114 727h186l64 -518l278 518h180l-419 -727h-175z" />
    <glyph glyph-name="w" unicode="w" horiz-adv-x="1097" 
d="M674 0l-27 471l-217 -471h-180l-78 727h188l31 -489l225 489h178l23 -489l237 489h179l-385 -727h-174z" />
    <glyph glyph-name="x" unicode="x" horiz-adv-x="770" 
d="M184 727h207l101 -213l192 213h207l-321 -336l190 -391h-207l-117 256l-225 -256h-201l348 381z" />
    <glyph glyph-name="y" unicode="y" horiz-adv-x="751" 
d="M271 -259.5q-62 -47.5 -136 -47.5t-107 14l36 160q45 -19 88 -19q44 0 80 48l67 112l-131 719h184l76 -518l287 518h176l-491 -829q-67 -110 -129 -157.5z" />
    <glyph glyph-name="z" unicode="z" horiz-adv-x="755" 
d="M586 578h-375l33 149h604l-24 -113l-506 -466h401l-31 -148h-626l24 119z" />
    <glyph glyph-name="braceleft" unicode="{" horiz-adv-x="483" 
d="M580 901q-38 0 -57 -21t-27 -65l-54 -252q-25 -126 -147 -191q97 -45 67 -188l-55 -252q-8 -42 2.5 -62t46.5 -20h58l-27 -122h-103q-118 0 -132 69t-4 115l55 252q15 69 -9 114.5t-73 45.5l21 100q47 0 91 46t58 114l53 254q30 131 105.5 158.5t111.5 27.5h103l-27 -123
h-57z" />
    <glyph glyph-name="bar" unicode="|" horiz-adv-x="327" 
d="M467 1100l-297 -1395h-140l298 1395h139z" />
    <glyph glyph-name="braceright" unicode="}" horiz-adv-x="483" 
d="M356 1024q118 0 132 -71t4 -115l-54 -254q-14 -66 9 -113t71 -47l-20 -100q-48 0 -90 -43t-58 -117l-55 -252q-17 -89 -77 -136.5t-138 -47.5h-100l24 122h58q37 0 55.5 20t26.5 62l54 252q18 84 57 125.5t89 62.5q-56 37 -65 94t-1 97l54 252q9 46 -0.5 66t-47.5 20h-56
l26 123h102z" />
    <glyph glyph-name="asciitilde" unicode="~" horiz-adv-x="854" 
d="M642 362q68 0 159 115l53 -102q-55 -65 -108 -101t-120 -36t-152 50t-128 50t-86.5 -49t-63.5 -70l-48 103q94 141 231 141q63 0 150 -50.5t113 -50.5z" />
    <glyph glyph-name="uni00A0" unicode="&#xa0;" horiz-adv-x="248" 
 />
    <glyph glyph-name="cent" unicode="&#xa2;" horiz-adv-x="772" 
d="M281 253q0 -76 96 -105l96 454q-144 -36 -184 -236q-8 -37 -8 -113zM488 148q94 22 145 151h172q-110 -272 -349 -299l-32 -150h-110l32 150q-218 24 -232.5 192t71.5 349.5t321 210.5l26 132h111l-27 -130q177 -20 202.5 -114t17.5 -158h-168q7 106 -84 124z" />
    <glyph glyph-name="sterling" unicode="&#xa3;" horiz-adv-x="772" 
d="M276 33q-51 0 -155 -53l-70 122q74 38 163 130t44 204h-125l23 106h63q-45 144 19.5 265.5t174.5 168t196 46.5q172 0 243 -98.5t28 -288.5h-163q42 245 -125 245q-76 0 -145.5 -52t-69.5 -135t27 -151h231l-23 -106h-176q2 -17 2 -85t-129 -191q21 6 47 6t58 -3.5
t66 -13.5q34 -11 59.5 -19.5t68.5 -8.5t125 61l63 -124q-109 -78 -249 -78q-52 0 -87.5 10t-83.5 26t-100 17z" />
    <glyph glyph-name="yen" unicode="&#xa5;" horiz-adv-x="825" 
d="M174 203l26 129h198l10 49l-10 31h-181l27 126h110l-145 462h207l122 -441l300 441h200l-340 -462h117l-27 -126h-184l-22 -31l-10 -49h200l-26 -129h-201l-43 -203h-174l42 203h-196z" />
    <glyph glyph-name="copyright" unicode="&#xa9;" horiz-adv-x="1114" 
d="M726 807q238 0 230 -227h-110q-3 87 -51 107.5t-85 20.5q-81 0 -144.5 -61.5t-79.5 -152.5q-30 -141 34 -180.5t100 -39.5q65 0 116.5 38t72.5 98h113q-109 -238 -327 -238q-59 0 -137 36t-97.5 161.5t52 246.5t162 156t151.5 35zM554 76q72 0 126.5 14t132.5 55.5
t150.5 136.5t94.5 198q41 190 -49 309t-263 119t-312.5 -117.5t-176.5 -297.5t27 -267t131 -118.5t139 -31.5zM1083 888q99 -124 109 -257t-57.5 -271.5t-217.5 -261t-367.5 -122.5t-338.5 148t-74 368q48 220 233.5 370t399.5 150t313 -124z" />
    <glyph glyph-name="guillemotleft" unicode="&#xab;" horiz-adv-x="643" 
d="M434 461l256 172l-28 -141l-160 -107l114 -105l-30 -143l-182 175zM162 461l256 172l-29 -141l-157 -107l112 -105l-30 -143l-183 175z" />
    <glyph glyph-name="registered" unicode="&#xae;" horiz-adv-x="1108" 
d="M733 768q104 0 146.5 -40.5t22.5 -129.5t-74 -120.5t-82 -39.5l92 -221h-134l-88 209h-59l-45 -209h-121l117 551h225zM645 526q88 0 110.5 24t27.5 47q9 40 -17.5 54.5t-67.5 14.5h-90l-30 -140h67zM554 76q72 0 126.5 14t132.5 55.5t150.5 136.5t94.5 198
q41 190 -49 309t-263 119t-312.5 -117.5t-176.5 -297.5t27 -267t131 -118.5t139 -31.5zM1083 888q99 -124 109 -257t-57.5 -271.5t-217.5 -261t-367.5 -122.5t-338.5 148t-74 368q48 220 233.5 370t399.5 150t313 -124z" />
    <glyph glyph-name="guillemotright" unicode="&#xbb;" horiz-adv-x="643" 
d="M370 312l-256 -175l32 143l155 105l-111 107l29 141l183 -172zM643 312l-256 -175l31 143l154 105l-109 107l29 141l182 -172z" />
    <glyph glyph-name="onequarter" unicode="&#xbc;" horiz-adv-x="1167" 
d="M1166 238l-23 -111h-82l-27 -127h-118l26 127h-262l20 103l369 378h95l-80 -370h82zM964 238l38 168l-166 -168h128zM250 864q108 7 143 43.5t49 69.5h105l-129 -607h-119l86 408q-59 -26 -157 -26zM1161 1000l-782 -1000h-129l782 1000h129z" />
    <glyph glyph-name="onehalf" unicode="&#xbd;" horiz-adv-x="1167" 
d="M250 864q108 7 143 43.5t49 69.5h105l-129 -607h-119l86 408q-59 -26 -157 -26zM1118 1000l-782 -1000h-129l782 1000h129zM1176.5 554.5q52.5 -51.5 33.5 -134.5q-26 -131 -178 -204.5t-188 -109.5h292l-22 -106h-444q41 155 120.5 201.5t117.5 66.5q88 46 126.5 76
t48.5 72q9 41 -11 61.5t-53 20.5q-101 0 -132 -134h-127q24 105 98 173.5t170 68.5t148.5 -51.5z" />
    <glyph glyph-name="threequarters" unicode="&#xbe;" horiz-adv-x="1167" 
d="M1241 1000l-785 -1000h-126l782 1000h129zM1186 238l-22 -111h-82l-28 -127h-118l26 127h-262l21 103l369 378h94l-80 -370h82zM985 238l37 168l-166 -168h129zM482 870q-83 0 -105 -106h-127q44 157 126.5 186t129.5 29q97 0 144 -44.5t32 -119.5t-86 -119
q75 -43 57 -138t-97.5 -145.5t-176.5 -50.5q-159 0 -177 82t-6 138h130q-19 -111 60 -111q57 0 94.5 22t43.5 52q10 51 -17.5 70.5t-70.5 19.5h-38l22 103h28q61 0 82 24t25 41q9 49 -22 58t-51 9z" />
    <glyph glyph-name="multiply" unicode="&#xd7;" horiz-adv-x="717" 
d="M350 375l-192 266l112 90l189 -260l301 260l76 -90l-308 -266l195 -265l-113 -90l-190 260l-299 -260l-76 90z" />
    <glyph glyph-name="divide" unicode="&#xf7;" horiz-adv-x="833" 
d="M874 442l-26 -133h-734l28 133h732zM576 756q42 0 75.5 -42t-9 -105.5t-98 -63.5t-88.5 42t10.5 105.5t109.5 63.5zM460 209q22 0 58.5 -19t23.5 -90q-8 -38 -56.5 -78t-107 -13.5t-46.5 91.5q7 41 35.5 66t49.5 34t43 9z" />
    <glyph glyph-name="kokaithai" unicode="&#xe01;" horiz-adv-x="884" 
d="M577 858q359 0 347 -264q0 -44 -10 -88l-107 -506h-170l109 520q29 129 -77 177q-37 17 -94 17q-102 1 -168 -38q-66 -40 -79 -78q32 -38 32 -102q0 -22 -6 -44l-94 -452h-168l96 454q16 93 -42 128q65 159 238 234q96 42 193 42z" />
    <glyph glyph-name="khokhaithai" unicode="&#xe02;" horiz-adv-x="778" 
d="M284 0l-8 704h-108l28 136h256l-4 -656l275 656h174l-365 -840h-248z" />
    <glyph glyph-name="khokhuatthai" unicode="&#xe03;" horiz-adv-x="798" 
d="M368 622q-155 0 -167 136q-3 34 8 82h159q-14 -54 16 -75q10 -7 24 -7q27 0 49 24t29 58h163l-37 -174q-12 -48 -40 -77q-26 -29 -54 -50t-81 -64t-67 -76t-20 -55l-10 -53q-32 -158 104 -162q138 0 166 149l121 562h168l-123 -574q-31 -142 -134 -214t-232 -72t-202 75
t-46 211l8 39q19 94 44 134q36 56 108 103t89 67t25 36q-38 -23 -68 -23z" />
    <glyph glyph-name="khokhwaithai" unicode="&#xe04;" horiz-adv-x="893" 
d="M391 803q92 55 236 55q207 0 270 -116q55 -101 21 -256l-103 -486h-170l107 504q20 81 -14 138q-36 66 -142 66q-105 0 -165 -60t-79 -144l-24 -113q60 66 122 93q63 28 162 28l-32 -148q-209 0 -280 -163q-24 -52 -38 -117l-16 -84h-168l102 486q49 228 211 317z" />
    <glyph glyph-name="khokhonthai" unicode="&#xe05;" horiz-adv-x="901" 
d="M573 563q-15 1 -21 5l-12 8l-86 108q-49 -22 -88 -124q-10 -26 -14 -50l-24 -119q60 66 122 93q63 28 162 28l-32 -148q-209 0 -280 -163q-24 -52 -38 -117l-16 -84h-168l104 494q61 312 346 358l78 -110l121 110q231 -34 213 -276q-4 -40 -12 -82l-104 -494h-170
l106 510q22 80 -5 143q-9 20 -28 31l-127 -108q-13 -13 -27 -13z" />
    <glyph glyph-name="khorakhangthai" unicode="&#xe06;" horiz-adv-x="891" 
d="M363 624q-150 0 -162 134q-3 34 8 82h159q-14 -54 16 -75q10 -7 24 -7q27 0 49 24t29 58h163l-37 -172q-13 -60 -53 -100q-39 -39 -101 -84t-80 -71q-19 -26 -28 -74q-27 -137 86 -191q69 -32 154 -4t110 134l121 562h170l-117 -547q-31 -153 -110 -225q-90 -86 -254 -86
q-163 0 -221 108l-21 -90h-162l64 299q19 101 43 138t55 61q30 22 50 38t34 26q51 36 72 79q-36 -17 -61 -17z" />
    <glyph glyph-name="ngonguthai" unicode="&#xe07;" horiz-adv-x="661" 
d="M360 -20q-125 0 -161 94q-13 30 -17 66l-55 364h176l55 -348q4 -33 39 -33q17 0 33 12t20 29l115 544h-117l29 132h285l-140 -650q-34 -159 -174 -198q-42 -12 -88 -12z" />
    <glyph glyph-name="chochanthai" unicode="&#xe08;" horiz-adv-x="811" 
d="M572 856q221 0 278 -114q65 -115 -58 -346q-89 -167 -245 -396h-211l-56 372h-112l28 134h244l44 -330q173 272 194 364q22 93 -12 134t-119 41q-128 4 -191 -131h-184q76 197 275 253q66 19 125 19z" />
    <glyph glyph-name="chochingthai" unicode="&#xe09;" horiz-adv-x="884" 
d="M585 708q-142 0 -207 -90q-18 -24 -26 -48h-174q63 196 269 264q73 24 157 24t138 -14q233 -60 170 -352l-105 -492h-162l15 94q-108 -114 -283 -114q-243 0 -249 193q-2 60 14 132l34 164h168l-39 -180q-14 -66 20 -110t100 -44q179 0 257 149q24 46 35 99l27 125
q30 135 -67 183q-35 17 -92 17z" />
    <glyph glyph-name="chochangthai" unicode="&#xe0a;" horiz-adv-x="790" 
d="M330 719q-20 0 -45 -4t-53 -13l-54 -18l29 131q111 37 163 37q157 0 173 -103q5 -33 -10 -79t-43 -79q-27 -33 -52 -59t-57 -61t-40 -55q-7 -20 -11 -36t-10 -34l-11 -55q-15 -75 17 -117t81 -44q83 -2 116 24q61 48 77 124l12 56q18 86 -11 111q-30 25 -113 28l24 123
q140 0 194 137q18 47 32 107h170q-51 -233 -210 -302q97 -31 92 -131q0 -33 -10 -73l-14 -68q-28 -140 -142 -217q-98 -69 -230 -69t-210 76t-49 210l15 68l14 56q15 61 41 90q25 30 41 46t34 33l30 30q72 77 52 110q-12 20 -32 20z" />
    <glyph glyph-name="sosothai" unicode="&#xe0b;" horiz-adv-x="841" 
d="M843 406q0 -36 -9 -74l-15 -66q-28 -142 -143 -217q-101 -69 -232 -69t-208 75t-53 198q25 123 53 184q28 60 104 118q8 7 28 23q35 29 56 69q-42 -25 -72 -25q-155 0 -167 136q-3 34 7 82h160q-13 -52 16 -75q10 -7 24 -7t26 6q38 19 51 76h164l-37 -174
q-17 -69 -82 -126q-23 -20 -51 -44q-77 -66 -101 -205q-15 -73 19 -120q32 -40 79 -41q82 -2 116 24q62 48 76 124l12 54q24 116 -59 135q-26 5 -58 6l25 123q132 9 188 142q18 44 30 102h168q-51 -234 -208 -302q93 -33 93 -132z" />
    <glyph glyph-name="chochoethai" unicode="&#xe0c;" horiz-adv-x="1325" 
d="M563 858q333 0 327 -264q-2 -44 -12 -90l-28 -136q-35 -164 61 -221q31 -18 81 -18t89 35q38 35 53 114l122 562h170l-118 -547q-34 -158 -111 -236q-76 -77 -217 -77t-196 110l-20 -90h-162l108 520q30 125 -66 176q-34 18 -86 18t-88 -9q-104 -28 -142 -107
q44 -37 26 -148l-65 -313h90l-29 -137h-258l94 452q21 94 -40 130q70 160 234 234q92 42 183 42z" />
    <glyph glyph-name="yoyingthai" unicode="&#xe0d;" horiz-adv-x="1325" 
d="M556 708q-132 0 -201 -76q-19 -22 -29 -44q44 -40 26 -152l-63 -299h90l-29 -137h-258l92 438q21 93 -40 134q52 118 164 202t276 84q257 0 297 -188q17 -77 -5 -178l-32 -148q-36 -154 84 -154q85 0 151 69t91 179l86 402h170l-142 -666q-33 -154 -97 -246
q-138 -178 -341 -178t-256 139q-18 47 -14 111h159q2 -50 40 -81q39 -31 91 -31q144 0 210 135q17 37 24 73l12 54q-113 -113 -236 -113q-212 -3 -215 186q0 59 17 137l30 148q29 132 -66 182q-34 18 -86 18z" />
    <glyph glyph-name="dochadathai" unicode="&#xe0e;" horiz-adv-x="919" 
d="M395 496q0 -22 -6 -44l-94 -452h-250l29 137h82l67 317q16 92 -43 128q70 159 239 234q94 42 192 42q237 0 307 -108q64 -96 30 -244l-168 -795h-164q-21 44 -49 62q-54 33 -130 33q-131 0 -269 -120l35 162q108 94 242 94t202 -50l133 628q17 77 -18 132q-44 61 -168 62
q-125 1 -204 -78q-20 -20 -28 -38q33 -40 33 -102z" />
    <glyph glyph-name="topatakthai" unicode="&#xe0f;" horiz-adv-x="919" 
d="M393 -137q71 71 173 71q52 0 83 -38l131 624q17 77 -18 132q-44 61 -168 62q-125 1 -204 -78q-20 -20 -28 -38q33 -40 33 -102q0 -22 -6 -44l-94 -452h-250l29 137h82l67 317q16 92 -43 128q70 159 239 234q94 42 192 42q237 0 307 -108q64 -96 30 -244l-168 -795h-168
q0 62 -35 89q-15 10 -35 10q-57 0 -90 -66q-8 -17 -12 -33h-141q3 11 3 39t-17 45t-38 17q-67 0 -91 -101h-136q22 110 92 170q70 59 158 59t123 -77z" />
    <glyph glyph-name="thothanthai" unicode="&#xe10;" horiz-adv-x="807" 
d="M547 715q-136 0 -199 -139h-184q49 127 163 205q114 77 267 77q73 0 135 -20q47 8 76 58q7 14 10 28h181q-33 -131 -148 -174q41 -66 14 -187q-33 -150 -315 -563h-211l-56 375h-112l28 131h244l44 -328q171 261 194 358q22 97 -12 138t-119 41zM178 -245
q-18 -22 -22 -50h-128q16 106 90 162q61 39 118 39q56 0 86 -41q53 41 99 41t71 -27l12 57h170l-50 -231h-165q6 72 -43 72q-32 3 -55 -43q-7 -13 -9 -29h-96q11 51 -16 66q-8 6 -26 6t-36 -22z" />
    <glyph glyph-name="thonangmonthothai" unicode="&#xe11;" horiz-adv-x="891" 
d="M635 780q129 80 219 80t106 -50q14 -38 -4 -134l-143 -676h-170l131 622q20 78 -4 78q-66 0 -305 -221q-21 -20 -56 -53t-50 -65q-14 -31 -23 -72l-60 -289h-170l58 272q18 95 34 123q36 63 125 138q89 74 101 88t16 26q-50 -25 -76 -25t-57 5t-56 26q-71 60 -42 187h159
q-19 -82 47 -82q21 0 42 22t29 60h163z" />
    <glyph glyph-name="thophuthaothai" unicode="&#xe12;" horiz-adv-x="1360" 
d="M594 584q-16 -12 -35 -12t-25 12l-86 104q-66 -35 -90 -154l-65 -308q37 36 79 75t82 78h-58l26 127h244l-25 -117l-403 -389h-160l108 518q37 186 155 266q74 51 179 66l80 -106l119 106q196 -29 209 -181q7 -57 -12 -151l-32 -150q-32 -165 62 -221q31 -18 82 -18
t89 35t53 114l120 562h170l-116 -547q-34 -157 -112 -235t-218 -78t-195 110l-18 -90h-164l113 534q17 92 4 118q-12 25 -31 34z" />
    <glyph glyph-name="nonenthai" unicode="&#xe13;" horiz-adv-x="1325" 
d="M563 858q333 0 327 -264q-2 -44 -12 -90l-48 -226q-28 -149 80 -149q93 0 159 68t86 171l101 472h170l-179 -840h-163l16 90q-105 -110 -245 -110q-204 0 -207 180q0 58 16 133l46 227q30 125 -66 176q-34 18 -86 19t-104 -13t-84 -48t-42 -56q44 -37 26 -148l-65 -313
h90l-29 -137h-258l94 452q21 94 -40 130q70 160 234 234q92 42 183 42z" />
    <glyph glyph-name="dodekthai" unicode="&#xe14;" horiz-adv-x="901" 
d="M251 674q115 184 381 184t302 -184q16 -72 -4 -172l-106 -502h-170l108 518q21 120 -41 166q-44 31 -113 31q-120 0 -184 -64q-50 -47 -70 -133l-63 -299l176 160h-65l26 129h254l-24 -119l-420 -389h-160l106 502q20 98 67 172z" />
    <glyph glyph-name="totaothai" unicode="&#xe15;" horiz-adv-x="907" 
d="M606 584q-18 -12 -34 -12t-25 12l-86 104q-61 -26 -93 -120q-10 -26 -14 -48l-63 -299l176 158h-65l26 127h256l-24 -117l-422 -389h-160l106 506q60 300 346 344l82 -104l119 104q109 -16 157 -66q73 -70 60 -199q-4 -39 -12 -79l-106 -506h-168l108 520q15 82 -12 136
q-10 20 -25 30z" />
    <glyph glyph-name="thothungthai" unicode="&#xe16;" horiz-adv-x="868" 
d="M598 858q130 0 214 -51q130 -83 85 -301l-107 -506h-168l109 520q29 131 -71 177q-37 17 -94 18t-115 -16t-87 -51q-28 -34 -36 -50q46 -38 26 -146l-65 -315h90l-29 -137h-258l96 454q16 93 -42 128q122 276 452 276z" />
    <glyph glyph-name="thothahanthai" unicode="&#xe17;" horiz-adv-x="884" 
d="M400 738q116 122 283 122t219 -86t18 -240l-113 -534h-168l117 551q24 103 -62 143q-26 10 -74 10t-96 -18q-139 -54 -180 -230l-96 -456h-170l178 840h164z" />
    <glyph glyph-name="thothongthai" unicode="&#xe18;" horiz-adv-x="839" 
d="M385 132q29 -6 67 -7q38 1 66 7q53 12 93 47q41 36 41 94q0 59 -59 91q-37 20 -105 43t-102 35q-125 44 -156 93t-18 99q30 122 136 172t205 50q186 0 264 -68q79 -68 49 -210h-170q23 109 -72 131q-30 8 -66 8q-159 0 -173 -61q-7 -36 75 -72q38 -16 73 -27t98 -32
t97 -40q125 -73 96 -217q-14 -69 -36 -107q-41 -72 -118 -117q-111 -60 -233 -60t-171 20q-174 71 -137 242l37 176h168l-37 -176q-19 -90 88 -114z" />
    <glyph glyph-name="nonuthai" unicode="&#xe19;" horiz-adv-x="884" 
d="M662 102q-118 -122 -285 -122q-243 0 -249 193q-2 60 14 132l114 535h168l-119 -551q-14 -66 20 -110t100 -44q179 0 257 149q24 46 35 99l98 457h170l-178 -840h-164z" />
    <glyph glyph-name="bobaimaithai" unicode="&#xe1a;" horiz-adv-x="884" 
d="M478 131q95 0 153 60t77 147l107 502h170l-105 -490q-24 -109 -58 -165q-35 -55 -69 -90q-110 -113 -314 -113q-368 0 -287 372l104 486h168l-106 -502q-34 -162 86 -198q26 -8 74 -9z" />
    <glyph glyph-name="poplathai" unicode="&#xe1b;" horiz-adv-x="884" 
d="M478 131q95 0 153 60t77 147l185 868h170l-183 -856q-24 -109 -58 -165q-35 -55 -69 -90q-110 -113 -314 -113q-368 0 -287 372l104 486h168l-106 -502q-34 -162 86 -198q26 -8 74 -9z" />
    <glyph glyph-name="phophungthai" unicode="&#xe1c;" horiz-adv-x="948" 
d="M656 125q22 0 37 8q46 26 65 131l122 576h168l-128 -602q-54 -254 -266 -254q-127 0 -164 96q-65 -96 -197 -96q-158 0 -175 140q-6 48 9 114l129 602h278l-30 -138h-111l-92 -438q-29 -139 41 -139q65 0 95 110q7 33 15 70l30 133h167l-29 -133q-19 -89 -15 -120t16 -46
q13 -14 35 -14z" />
    <glyph glyph-name="fofathai" unicode="&#xe1d;" horiz-adv-x="948" 
d="M656 125q22 0 37 8q46 26 65 131l200 942h168l-206 -968q-54 -254 -266 -254q-127 0 -164 96q-65 -96 -197 -96q-158 0 -175 140q-6 48 9 114l129 602h278l-30 -138h-111l-92 -438q-29 -139 41 -139q65 0 95 110q7 33 15 70l30 133h167l-29 -133q-19 -89 -15 -120t16 -46
q13 -14 35 -14z" />
    <glyph glyph-name="phophanthai" unicode="&#xe1e;" horiz-adv-x="1112" 
d="M828 840l4 -596l248 596h184l-392 -840h-184l-10 596l-254 -596h-186l-35 840h186l-6 -602l258 602h187z" />
    <glyph glyph-name="fofanthai" unicode="&#xe1f;" horiz-adv-x="1112" 
d="M828 840l4 -596l386 962h185l-531 -1206h-184l-10 596l-254 -596h-186l-35 840h186l-6 -602l258 602h187z" />
    <glyph glyph-name="phosamphaothai" unicode="&#xe20;" horiz-adv-x="919" 
d="M395 496q0 -22 -6 -44l-94 -452h-250l29 137h82l67 317q16 92 -43 128q70 159 239 234q94 42 192 42q237 0 307 -108q64 -96 30 -244l-106 -506h-170l108 520q17 77 -18 132q-44 61 -168 62q-125 1 -204 -78q-20 -20 -28 -38q33 -40 33 -102z" />
    <glyph glyph-name="momathai" unicode="&#xe21;" horiz-adv-x="884" 
d="M498 135q48 0 79 11q103 36 121 143l119 551h168l-115 -535q-36 -160 -121 -243q-85 -82 -253 -82q-167 0 -232 122l-22 -102h-164l178 840h170l-98 -457q-33 -174 83 -229q39 -19 87 -19z" />
    <glyph glyph-name="yoyakthai" unicode="&#xe22;" horiz-adv-x="862" 
d="M484 840h126l-30 -144h-92q-101 0 -118 -74q-11 -50 15 -71t76 -25h81l-30 -141h-82q-85 -4 -114 -57q-12 -22 -20 -59q-14 -71 32 -108t105 -37q111 1 169 48q59 47 82 152l110 516h168l-116 -545q-31 -148 -150 -231q-119 -84 -274 -84q-94 0 -150 23q-102 41 -133 101
q-41 69 -20 160q28 149 135 190q-79 52 -56 179q24 112 118 165q73 42 168 42z" />
    <glyph glyph-name="roruathai" unicode="&#xe23;" horiz-adv-x="745" 
d="M398 126q110 0 154 54q20 22 28 61t-22 63q-30 23 -107 57q-77 33 -124 55t-80 50q-69 59 -51 158q8 40 27 74q94 158 316 158t257 -142q12 -52 0 -132h-168q8 73 -19 105t-99 32q-73 0 -116 -49q-16 -18 -23 -49t30 -57q36 -25 117 -56q157 -61 204 -117q46 -56 29 -141
q-53 -266 -383 -266q-223 0 -265 158q-15 56 -3 136h170q-21 -152 128 -152z" />
    <glyph glyph-name="ruthai" unicode="&#xe24;" horiz-adv-x="868" 
d="M598 858q130 0 214 -51q130 -83 85 -301l-166 -778h-168l168 792q29 131 -71 177q-37 17 -94 18t-115 -16t-87 -51q-28 -34 -36 -50q46 -38 26 -146l-65 -315h90l-29 -137h-258l96 454q16 93 -42 128q122 276 452 276z" />
    <glyph glyph-name="lolingthai" unicode="&#xe25;" horiz-adv-x="864" 
d="M600 715q-183 0 -225 -160h-172q55 232 293 286q70 15 126 15q217 0 274 -97q37 -56 18 -153l-128 -606h-168l86 408q-66 -23 -173 -35q-106 -12 -151 -30q-92 -37 -106 -111q-21 -84 76 -106q55 -13 156 9l-29 -133q-82 -20 -138 -20q-128 0 -196 59q-69 59 -41 190
t139 191t365 88q123 17 138 82q21 104 -85 119q-29 4 -59 4z" />
    <glyph glyph-name="luthai" unicode="&#xe26;" horiz-adv-x="919" 
d="M395 496q0 -22 -6 -44l-94 -452h-250l29 137h82l67 317q16 92 -43 128q70 159 239 234q94 42 192 42q237 0 307 -108q64 -96 30 -244l-166 -778h-170l168 792q17 77 -18 132q-44 61 -168 62q-125 1 -204 -78q-20 -20 -28 -38q33 -40 33 -102z" />
    <glyph glyph-name="wowaenthai" unicode="&#xe27;" horiz-adv-x="786" 
d="M664 553q0 166 -132 166q-66 0 -103 -32q-64 -57 -89 -145h-170q37 146 143 232t250 86q176 0 239 -117t22 -323q-67 -315 -283 -407q-73 -31 -155 -31q-151 0 -222 88t-45 229h170q-27 -176 117 -176q83 0 147 72q62 74 87 188q24 113 24 170z" />
    <glyph glyph-name="sosalathai" unicode="&#xe28;" horiz-adv-x="893" 
d="M784 834q63 4 88 90h180q-24 -95 -95 -152q-26 -21 -59 -32q42 -78 30 -185q-4 -33 -10 -69l-103 -486h-170l107 504q20 81 -14 138q-36 66 -142 66q-105 0 -165 -60t-79 -144l-24 -113q60 66 122 93q63 28 162 28l-32 -148q-209 0 -280 -163q-24 -52 -38 -117l-16 -84
h-168l102 486q49 228 211 317q92 55 210 55q119 0 183 -24z" />
    <glyph glyph-name="sorusithai" unicode="&#xe29;" horiz-adv-x="884" 
d="M461 125q164 0 221 129q14 36 22 72l15 65h-244l41 195h160l-12 -60h84l67 314h170l-67 -314h76l-30 -135h-75l-11 -51q-23 -105 -56 -159q-61 -102 -152 -150q-92 -49 -232 -49q-213 0 -272 111q-36 65 -31 134q5 68 15 113l106 500h168l-110 -514q-21 -126 29 -164
q50 -37 118 -37z" />
    <glyph glyph-name="sosuathai" unicode="&#xe2a;" horiz-adv-x="864" 
d="M343 -16q-131 0 -200 57t-43 182q33 152 172 215q84 38 156 49t112 16q141 18 180 50q18 15 25 47q14 65 -28 90t-117 25q-184 0 -225 -158h-172q55 231 295 286q70 15 146 15t140 -20q72 8 94 86h181q-15 -86 -95 -148q-26 -20 -59 -30q24 -61 9 -140l-128 -606h-168
l86 412q-68 -28 -169 -37t-151 -28t-76 -45t-34 -63q-14 -64 30 -92q62 -40 202 -10l-29 -135q-74 -18 -134 -18z" />
    <glyph glyph-name="hohipthai" unicode="&#xe2b;" horiz-adv-x="866" 
d="M424 840l-64 -295l406 295h246l-222 -158q77 -35 91 -107q14 -73 -13 -192l-80 -383h-168l84 400q21 103 -20 150q-15 18 -41 24l-325 -236l-72 -338h-168l178 840h168z" />
    <glyph glyph-name="lochulathai" unicode="&#xe2c;" horiz-adv-x="1112" 
d="M1329 973q-53 -166 -201 -203q69 -73 2 -211l-256 -559h-186l-49 482l-246 -482h-186l-9 840h189l-29 -617l246 485h174l46 -487q18 42 33 82q16 40 65 159t54 139q4 21 8 37q14 63 -37 77q-19 6 -48 6l27 119q87 4 124 27q67 41 86 106h193z" />
    <glyph glyph-name="oangthai" unicode="&#xe2d;" horiz-adv-x="852" 
d="M335 780q114 80 259 80t226 -59q137 -111 77 -383q-26 -126 -70 -195q-43 -70 -81 -111q-130 -130 -326 -130t-263 129q-63 114 -20 307q2 9 6 28q3 19 7 33h378l-28 -133h-205q-24 -153 81 -207q77 -38 168 3q133 62 181 276q64 297 -147 297q-172 0 -230 -150h-178
q56 134 165 215z" />
    <glyph glyph-name="honokhukthai" unicode="&#xe2e;" horiz-adv-x="848" 
d="M607 862q83 0 143 -24q64 8 84 86h182q-21 -84 -91 -140q-25 -20 -55 -32q71 -118 27 -332q-26 -126 -70 -195q-43 -70 -81 -111q-130 -130 -322 -130q-256 0 -296 218q-17 90 9 218l13 59h378l-26 -131h-205q-18 -100 25 -161q43 -62 134 -63q92 -1 165 77
q74 78 105 220q63 294 -148 294q-161 -2 -230 -150h-178q89 212 287 276q67 21 150 21z" />
    <glyph glyph-name="paiyannoithai" unicode="&#xe2f;" horiz-adv-x="868" 
d="M704 391q-95 -67 -246 -67q-152 0 -226 74t-46 202q16 82 74 142q73 78 193 92q34 6 67 6h136l-32 -142h-134q-110 0 -130 -100q-15 -58 8 -85q42 -50 141 -50q212 -1 247 163l45 214h167l-178 -840h-168z" />
    <glyph glyph-name="saraathai" unicode="&#xe30;" horiz-adv-x="506" 
d="M104 131l42 191h155l-15 -62h202l-27 -129h-357zM192 547l42 193h155l-12 -62h201l-29 -131h-357z" />
    <glyph glyph-name="maihanakatthai" unicode="&#xe31;" 
d="M-322 968l44 202h155l-17 -72h402l-26 -130h-558z" />
    <glyph glyph-name="saraaathai" unicode="&#xe32;" horiz-adv-x="715" 
d="M142 563q29 137 136 215q108 78 240 78t200 -75t38 -218l-119 -563h-168l113 534q38 174 -98 174q-126 0 -166 -145h-176z" />
    <glyph glyph-name="saraamthai" unicode="&#xe33;" horiz-adv-x="715" 
d="M88 1272q62 0 102 -47q39 -48 25 -113q-14 -66 -72 -113t-106 -47q-119 0 -140 98q-13 62 25 123t102 87q32 12 64 12zM103 1090q23 33 5 56q-18 24 -46 24q-29 0 -54 -36q-13 -21 -8 -44q7 -36 44 -36t59 36zM142 563q29 137 136 215q108 78 240 78t200 -75t38 -218
l-119 -563h-168l113 534q38 174 -98 174q-126 0 -166 -145h-176z" />
    <glyph glyph-name="saraithai" unicode="&#xe34;" 
d="M-606 966l96 134h666l-29 -134h-733z" />
    <glyph glyph-name="saraiithai" unicode="&#xe35;" 
d="M-510 1100h508l22 118h160l-53 -252h-733z" />
    <glyph glyph-name="sarauethai" unicode="&#xe36;" 
d="M18 1063q10 0 21 4q36 13 42 42q5 29 -7 44t-28 15q-41 0 -60 -33q-6 -9 -8 -20q-6 -34 22 -48q8 -4 18 -4zM60 1262q30 0 55 -12q81 -39 61 -136q-13 -61 -65 -104q-52 -44 -111 -44h-606l96 134h391q24 110 120 150q29 12 59 12z" />
    <glyph glyph-name="saraueethai" unicode="&#xe37;" 
d="M-510 1100h289l25 118h151l-25 -118h74l24 118h152l-53 -252h-733z" />
    <glyph glyph-name="sarauthai" unicode="&#xe38;" 
d="M-322 -410l40 184h-74l28 130h232l-68 -314h-158z" />
    <glyph glyph-name="sarauuthai" unicode="&#xe39;" 
d="M-393 -424q-216 0 -189 198h-74l30 130h233l-25 -115q-16 -82 52 -82t88 82l24 115h158l-25 -115q-34 -148 -163 -196q-46 -17 -109 -17z" />
    <glyph glyph-name="phinthuthai" unicode="&#xe3a;" 
d="M-148 -264q-40 -33 -86 -33t-73 32t-21 69q7 36 21 56q47 70 121 70q48 0 66 -24q65 -86 -28 -170z" />
    <glyph glyph-name="PUCR2005" unicode="&#xe3e;" 
 />
    <glyph glyph-name="bahtthai" unicode="&#xe3f;" horiz-adv-x="952" 
d="M676 590q142 15 166 129q26 110 -56 123q-25 4 -57 6zM520 588l54 260h-130l-53 -260h129zM426 150l62 286h-130l-61 -286h129zM596 150q165 0 198 153q27 128 -151 133l-61 -286h14zM584 0h-33l-21 -94h-155l21 94h-306l211 1000h305l18 88h156l-18 -90
q249 -12 266 -166q4 -36 -9 -98q-28 -132 -149 -202q132 -64 98 -235q-26 -120 -125 -204q-71 -60 -161 -81q-46 -12 -98 -12z" />
    <glyph glyph-name="saraethai" unicode="&#xe40;" horiz-adv-x="358" 
d="M94 0l178 840h170l-178 -840h-170z" />
    <glyph glyph-name="saraaethai" unicode="&#xe41;" horiz-adv-x="641" 
d="M377 0l178 840h170l-178 -840h-170zM94 0l178 840h170l-178 -840h-170z" />
    <glyph glyph-name="saraothai" unicode="&#xe42;" horiz-adv-x="426" 
d="M326 966q12 54 -17 89t-83 35l58 128h410l48 -134h-263q32 -48 15 -113l-176 -834h88l-29 -137h-256z" />
    <glyph glyph-name="saraaimaimuanthai" unicode="&#xe43;" horiz-adv-x="426" 
d="M430 1122q-81 0 -108 -126h-158q27 126 110 193q84 67 185 67q148 0 178 -92t-47 -168q-16 -18 -36 -34t-37 -32t-27 -34q-10 -16 -16 -34t-10 -36t-8 -34l-138 -655h88l-29 -137h-256l168 792q13 72 41 120t78 85t62 51q28 31 11 52q-16 22 -51 22z" />
    <glyph glyph-name="saraaimaimalaithai" unicode="&#xe44;" horiz-adv-x="426" 
d="M318 137h88l-29 -137h-256l205 971q18 68 63 113h-262l105 134h409l6 -128q-54 0 -97 -33q-44 -33 -56 -91z" />
    <glyph glyph-name="lakkhangyaothai" unicode="&#xe45;" horiz-adv-x="715" 
d="M142 563q29 137 136 215q108 78 240 78t200 -75t38 -218l-178 -835h-168l172 806q38 174 -98 174q-126 0 -166 -145h-176z" />
    <glyph glyph-name="maiyamokthai" unicode="&#xe46;" horiz-adv-x="819" 
d="M332 494q0 -64 66 -64h34l-30 -148h-36q-171 0 -203 134q-21 86 38 227q75 172 295 207l67 -92l99 90q236 -20 200 -262q-6 -40 -14 -82l-166 -774h-170l168 790q37 147 -14 164l-109 -94q-14 -12 -32 -12t-27 12l-72 92q-77 -45 -90 -152q-4 -18 -4 -36z" />
    <glyph glyph-name="maitaikhuthai" unicode="&#xe47;" 
d="M-209 1048q-49 -69 -160 -69q-77 0 -108 54t-19 117q12 62 38 98q54 73 141 94q43 12 87 12h408l-26 -121h-394q-88 3 -102 -72q-2 -6 -2 -15q0 -40 39 -40q25 0 43 20t24 54h115q-20 -74 32 -74q51 0 56 74h125q-7 -101 -61 -151q-53 -50 -130 -50q-76 0 -106 69z" />
    <glyph glyph-name="maiekthai" unicode="&#xe48;" 
d="M94 1558h156l-52 -245h-155z" />
    <glyph glyph-name="maithothai" unicode="&#xe49;" 
d="M6 1310h-114l26 126h-78l25 124h209l-25 -124q119 0 175 77q16 21 22 47h145q-21 -103 -121 -176q-100 -74 -264 -74z" />
    <glyph glyph-name="maitrithai" unicode="&#xe4a;" 
d="M-35 1528q56 0 82 -52q41 52 105 52t89 -50q8 -16 9 -40q49 49 64 118h132q-16 -101 -126 -196q-49 -42 -92 -50h-107l6 56q0 37 -15 37q-8 1 -15 -9q-21 -31 -29 -84h-107q15 96 -6 93q-26 0 -45 -93h-125q22 156 123 205q29 13 57 13z" />
    <glyph glyph-name="maichattawathai" unicode="&#xe4b;" 
d="M217 1415l-21 -105h-151l21 105h-117l27 121h116l22 102h152l-22 -102h118l-26 -121h-119z" />
    <glyph glyph-name="thanthakhatthai" unicode="&#xe4c;" 
d="M242 1336q-156 0 -180 -122h-150q37 178 225 230q59 16 131 18z" />
    <glyph glyph-name="nikhahitthai" unicode="&#xe4d;" 
d="M88 1272q62 0 102 -47q39 -48 25 -113q-14 -66 -72 -113t-106 -47q-119 0 -140 98q-13 62 25 123t102 87q32 12 64 12zM103 1090q23 33 5 56q-18 24 -46 24q-29 0 -54 -36q-13 -21 -8 -44q7 -36 44 -36t59 36z" />
    <glyph glyph-name="yamakkanthai" unicode="&#xe4e;" 
d="M82 1082q-92 0 -110 -114h-152q26 130 122 194q32 22 74 32q58 133 266 133l-26 -129q-67 0 -93 -19t-34 -63l-6 -34h-41z" />
    <glyph glyph-name="fongmanthai" unicode="&#xe4f;" horiz-adv-x="1038" 
d="M526 100q56 0 99 12t83 33t75 50q70 58 112 145t35 167q-6 122 -106 189q-63 44 -129 44q-150 0 -248 -78q-132 -105 -163 -240q-14 -66 0 -124q25 -120 133 -172q53 -26 109 -26zM579 295q48 0 92 36t56 89t-16 89t-79 36q-51 -1 -85 -27q-86 -67 -69 -146
q17 -77 101 -77zM803 584q53 -70 33 -164q-20 -93 -101 -162q-82 -70 -177 -70q-96 0 -152 69t-36 164t105 164q84 69 180 69q95 0 148 -70zM358 729q158 129 341 129t282 -126q100 -126 63 -314q-24 -115 -106 -222q-119 -149 -306 -203q-58 -15 -120 -15q-122 0 -212 60
q-135 90 -147 266q-13 177 117 336q39 49 88 89z" />
    <glyph glyph-name="zerothai" unicode="&#xe50;" horiz-adv-x="911" 
d="M585 602q-163 0 -240 -131q-28 -47 -40 -106q-35 -171 86 -224q39 -18 91 -18q155 0 242 141q25 42 36 94q40 184 -90 230q-38 14 -85 14zM186 75q-93 91 -49 291q62 277 304 351q79 25 171 25q284 0 324 -215q12 -71 -8 -167t-67 -170q-47 -72 -111 -118
q-122 -88 -297 -88q-174 0 -267 91z" />
    <glyph glyph-name="onethai" unicode="&#xe51;" horiz-adv-x="905" 
d="M418 570q-67 -40 -80 -95q-22 -88 91 -108q39 -7 103 1l-26 -122q-52 -12 -108 -12q-121 0 -188 64t-46 165q36 181 251 253q91 28 181 28q291 0 336 -192q18 -68 -2 -160t-66 -168q-147 -239 -460 -238q-124 0 -184 15q-121 30 -192 109l156 109q69 -100 244 -100
q120 -2 211 69t119 199q32 159 -84 207q-38 16 -113 16q-76 0 -143 -40z" />
    <glyph glyph-name="twothai" unicode="&#xe52;" horiz-adv-x="1034" 
d="M574 338h63l-29 -131h-78q-125 0 -154 90q-8 26 -8 53q0 26 4 52t7 48l8 40q20 94 103 164q82 70 202 86l68 -70l88 70q115 -6 180 -71q67 -63 45 -159l-41 -192q-34 -164 -162 -246q-127 -82 -292 -82h-82q-204 0 -298 93t-58 251l56 264q11 56 -1 80q-13 24 -51 24
l56 142q98 0 144 -54q46 -58 22 -168l-63 -302q-27 -130 131 -172q53 -14 125 -15q128 -2 209 46q81 47 94 114l43 203q15 80 -51 98l-131 -98l-90 92q-40 -3 -67 -51q-9 -15 -13 -37l-8 -46q-17 -84 -4 -100t33 -16z" />
    <glyph glyph-name="threethai" unicode="&#xe53;" horiz-adv-x="927" 
d="M286 200q3 -65 62 -65q43 0 115 11l-31 -140q-65 -20 -162 -14q-136 16 -153 134q-10 66 1 121q11 54 17 85l13 55q52 251 239 321q61 24 133 32l82 -86l125 86q140 -8 198 -87q59 -80 33 -197l-96 -456h-168l96 456q8 49 -7 77q-28 51 -66 51l-154 -107l-102 107
q-71 -16 -117 -107q-18 -36 -28 -88l-13 -55q-5 -23 -11 -54t-6 -80z" />
    <glyph glyph-name="fourthai" unicode="&#xe54;" horiz-adv-x="927" 
d="M1048 840q-51 -256 -313 -256h-161q-156 0 -222 -93q-22 -30 -30 -69l-21 -96q-26 -129 71 -170q34 -14 84 -14h11q-53 68 -20 147q43 147 280 147l-31 -141q-54 2 -72 -13q-36 -29 -26 -70q10 -42 34 -56t40 -14h227l-29 -142h-460q-184 0 -252 108q-38 61 -35 120
q3 58 10 92l17 80q52 244 299 307q77 20 169 20h142q56 0 78 26t38 87h172z" />
    <glyph glyph-name="fivethai" unicode="&#xe55;" horiz-adv-x="927" 
d="M735 586h-153q-222 0 -260 -162l-19 -96q-20 -83 18 -132q37 -54 135 -54h11q-53 68 -20 147q43 147 280 147l-31 -141q-54 2 -72 -13q-36 -29 -26 -70q10 -42 34 -56t40 -14h227l-29 -142h-460q-132 0 -200 53q-114 80 -77 271l17 80q45 197 212 274q52 24 113 39l2 25
q22 94 125 139q30 12 63 12q64 0 103 -45q36 -45 20 -106q-1 -6 -1 -8l-1 -2v-1q72 18 90 109h172q-40 -198 -217 -244q-42 -10 -96 -10zM621 688q23 0 41 15q17 15 22 39q6 24 -5 38t-35 14q-50 0 -62 -52q-9 -54 39 -54z" />
    <glyph glyph-name="sixthai" unicode="&#xe56;" horiz-adv-x="940" 
d="M484 442h69l-27 -128h-63q-74 0 -99 -49q-22 -36 -9 -62q33 -69 137 -71q168 -4 252 114q26 38 38 90l10 49q46 211 -161 211q-164 -4 -353 -117l-104 252l150 78l55 -131q133 55 242 60q109 4 163 -8t92 -37q135 -86 88 -304l-10 -51q-44 -207 -246 -304
q-104 -48 -208 -45q-182 5 -260 73q-78 67 -54 178q35 153 190 191q50 11 108 11z" />
    <glyph glyph-name="seventhai" unicode="&#xe57;" horiz-adv-x="1100" 
d="M723 391q9 44 9 93q0 50 -20 70t-36 26l-131 -109l-86 113q-37 -9 -79 -56q-43 -47 -62 -141l-13 -53q-48 -190 49 -190h14q10 2 22 2t26 2l28 4l-26 -142q-56 -14 -91 -14t-67 7q-71 15 -106 67t-35 111t18 149l11 55q70 320 374 353l62 -80l94 80q276 -31 206 -347
l-12 -57q-24 -101 -59 -168q64 40 98 137q11 27 17 55l55 264q35 164 171 206q42 14 89 14l-6 -142q-56 0 -78 -56q-8 -20 -14 -48l-47 -224q-33 -157 -140 -258t-284 -120l-109 88q74 60 99 110t46 138z" />
    <glyph glyph-name="eightthai" unicode="&#xe58;" horiz-adv-x="925" 
d="M545 580q-133 0 -195 -100q-16 -28 -24 -58l-31 -152q-11 -41 10 -80q20 -39 55 -48l160 108l111 -108q87 0 115 120q12 55 -8 71q-28 21 -60 21h-29l29 130h62q132 -6 165 -78q19 -42 15 -81t-13 -85t-37 -96q-85 -154 -302 -154l-84 82l-122 -82q-136 8 -198 86
q-62 79 -37 194l27 130q49 235 272 304q74 23 164 23h190q56 0 79 27t38 86h170q-54 -260 -311 -260h-211z" />
    <glyph glyph-name="ninethai" unicode="&#xe59;" horiz-adv-x="942" 
d="M500 740q92 0 133 -19q35 -29 45 -49l68 53q20 15 40 15h50q51 0 69 21t33 79h168q-31 -154 -128 -207q-65 -37 -163 -37h-12q-15 0 -29 -12t-24 -19q-10 -8 -19 -16l153 -549h-176l-134 494q-29 102 -108 102t-121 -106q-15 -40 -29 -99l-17 -75q-6 -35 -8 -79
q0 -100 73 -100l72 7l-6 -138q-66 -16 -146 -12q-172 21 -167 193q-1 47 18 141l13 59q37 181 120 267q82 86 232 86z" />
    <glyph glyph-name="angkhankhuthai" unicode="&#xe5a;" horiz-adv-x="1153" 
d="M1086 840h168l-179 -840h-167zM704 391q-95 -67 -246 -67q-152 0 -226 74t-46 202q16 82 74 142q73 78 193 92q34 6 67 6h136l-32 -142h-134q-110 0 -130 -100q-15 -58 8 -85q42 -50 141 -50q212 -1 247 163l45 214h167l-178 -840h-168z" />
    <glyph glyph-name="khomutthai" unicode="&#xe5b;" horiz-adv-x="1800" 
d="M725 56q-104 -56 -226 -56t-212 66q-120 93 -123 264q0 54 10 104q34 162 152 277q133 133 300 133q104 0 172 -50q84 -67 84 -206q-2 -42 -10 -84l-157 -2q37 172 -107 182q-98 0 -170 -72t-96 -183q-23 -111 33 -188q57 -77 170 -77q253 0 373 353q20 59 32 120l123 61
q55 -73 105 -192q18 18 52 58t114 124q39 -86 55 -125q15 -40 23 -59l81 88h269l71 -164h-321q-58 -58 -102 -118t-66 -89q-27 102 -70 209q-80 -89 -182 -270q-22 173 -64 264q-93 -258 -313 -368z" />
    <glyph glyph-name="ZWSP" unicode="&#x200b;" 
 />
    <glyph glyph-name="endash" unicode="&#x2013;" horiz-adv-x="702" 
d="M801 469l-33 -157h-702l32 157h703z" />
    <glyph glyph-name="emdash" unicode="&#x2014;" horiz-adv-x="1388" 
d="M1487 469l-33 -157h-1388l32 157h1389z" />
    <glyph glyph-name="quoteleft" unicode="&#x2018;" horiz-adv-x="409" 
d="M240 620l36 170q30 151 109.5 187.5t128.5 36.5l-20 -96q-81 0 -107 -109h82l-39 -189h-190z" />
    <glyph glyph-name="quoteright" unicode="&#x2019;" horiz-adv-x="409" 
d="M516 1014l-37 -170q-18 -94 -81 -159t-156 -65l20 97q59 0 79.5 43.5t24.5 65.5h-82l42 188h190z" />
    <glyph glyph-name="quotedblleft" unicode="&#x201c;" horiz-adv-x="639" 
d="M486 620l36 170q33 154 110.5 189t127.5 35l-20 -96q-81 0 -107 -109h82l-39 -189h-190zM226 620l36 170q30 152 109 188t129 36l-21 -96q-59 0 -81 -44t-26 -65h82l-38 -189h-190z" />
    <glyph glyph-name="quotedblright" unicode="&#x201d;" horiz-adv-x="639" 
d="M500 1014l-37 -170q-18 -94 -81 -159t-156 -65l20 97q59 0 79.5 43.5t24.5 65.5h-82l41 188h191zM760 1014l-37 -170q-18 -94 -81 -159t-156 -65l20 97q59 0 79.5 43.5t24.5 65.5h-82l42 188h190z" />
    <glyph glyph-name="bullet" unicode="&#x2022;" horiz-adv-x="545" 
d="M408 652q48 0 87 -19q82 -40 102 -122t-36 -166q-55 -84 -153 -123q-46 -18 -94 -18q-93 0 -150 66q-55 66 -36 157t104 158q84 67 176 67z" />
    <glyph glyph-name="Euro" unicode="&#x20ac;" horiz-adv-x="1112" 
d="M842 1022q176 0 271 -88t87 -256h-180q0 194 -207 194q-160 0 -231.5 -81t-95.5 -125h292l-26 -124h-316q-11 -34 -13.5 -54t-4.5 -32h315l-27 -122h-290q19 -146 101.5 -175.5t141.5 -29.5t157.5 38.5t154.5 228.5h176q-132 -414 -531 -414q-282 0 -332 137t-52 215
h-130l27 122h111l18 86h-112l26 124h133q120 253 283.5 304.5t253.5 51.5z" />
    <glyph glyph-name="trademark" unicode="&#x2122;" horiz-adv-x="1376" 
d="M568 889l-107 -496h-127l106 496h-180l22 111h488l-22 -111h-180zM1256 393l86 405l-244 -405h-84l-76 405l-86 -405h-127l129 607h172l76 -402l240 402h174l-130 -607h-130z" />
    <glyph glyph-name="uni25CC" unicode="&#x25cc;" horiz-adv-x="934" 
d="M772 580l-53 -82q-10 25 -43 55zM684 226l-72 24q38 19 66 51zM422 580l76 -29q-52 -24 -74 -51zM301 404l88 38q-17 -51 -17 -78zM717 366q18 34 16 74l68 -38zM498 152l-21 76q30 -9 72 2zM604 652l20 -78q-38 8 -77 -2zM332 228l49 79q16 -38 43 -55z" />
    <glyph glyph-name="thothannobasethai" unicode="&#xf700;" horiz-adv-x="807" 
d="M547 715q-136 0 -199 -139h-184q49 127 163 205q114 77 267 77q73 0 135 -20q47 8 76 58q7 14 10 28h181q-33 -131 -148 -174q41 -66 14 -187q-33 -150 -315 -563h-211l-56 375h-112l28 131h244l44 -328q171 261 194 358q22 97 -12 138t-119 41z" />
    <glyph glyph-name="saraileftthai" unicode="&#xf701;" 
d="M-704 966l94 134h518l-29 -134h-583z" />
    <glyph glyph-name="saraiileftthai" unicode="&#xf702;" 
d="M-610 1100h358l24 118h160l-53 -252h-583z" />
    <glyph glyph-name="saraueleftthai" unicode="&#xf703;" 
d="M-234 1063q10 0 21 4q36 13 42 42q5 29 -7 44t-39 15t-51 -33q-6 -9 -8 -20q-6 -35 23 -48q9 -4 19 -4zM-137 1250q81 -39 61 -136q-13 -61 -65 -104q-52 -44 -113 -44h-450l96 134h236q10 72 66 118q53 44 98 44q46 0 71 -12z" />
    <glyph glyph-name="saraueeleftthai" unicode="&#xf704;" 
d="M-608 1100h137l25 118h151l-25 -118h76l25 118h151l-53 -252h-583z" />
    <glyph glyph-name="maieklowleftthai" unicode="&#xf705;" 
d="M-272 1222h164l-54 -258h-164z" />
    <glyph glyph-name="maitholowleftthai" unicode="&#xf706;" 
d="M-334 1094q148 0 178 122h148q-21 -101 -110 -170q-99 -73 -257 -75h-119l27 123h-69l26 122h203z" />
    <glyph glyph-name="maitrilowleftthai" unicode="&#xf707;" 
d="M-301 1042q0 35 -17 33q-29 0 -52 -102h-95q9 38 9 71t-15 31q-28 3 -53 -102h-117q17 106 68 165q51 60 114 60t76 -53q53 53 109 53q80 0 88 -98q34 31 49 110h127q-20 -86 -61 -136q-72 -87 -140 -101h-98q8 34 8 69z" />
    <glyph glyph-name="maichattawalowleftthai" unicode="&#xf708;" 
d="M-203 1071l-23 -105h-153l23 105h-117l25 121h116l23 102h153l-22 -102h116l-24 -121h-117z" />
    <glyph glyph-name="thanthakhatlowleftthai" unicode="&#xf709;" 
d="M-114 1090q-153 0 -183 -122h-151q24 116 118 180t242 68z" />
    <glyph glyph-name="maieklowrightthai" unicode="&#xf70a;" 
d="M14 1222h164l-53 -258h-162z" />
    <glyph glyph-name="maitholowrightthai" unicode="&#xf70b;" 
d="M-156 971h-122l26 125h-72l27 124h211l-26 -124q115 0 171 77q16 21 21 47h150q-22 -103 -123 -176q-102 -73 -263 -73z" />
    <glyph glyph-name="maitrilowrightthai" unicode="&#xf70c;" 
d="M-289 1039q0 36 -18 36q-29 0 -49 -71q-6 -18 -8 -33h-132q17 114 74 173q56 60 124 60t93 -53q65 53 115 53t72 -26q28 -24 32 -74q56 50 68 114h146q-18 -82 -89 -157q-71 -74 -147 -90h-111q15 57 6 80t-18 24q-31 0 -57 -104h-109q8 32 8 68z" />
    <glyph glyph-name="maichattawalowrightthai" unicode="&#xf70d;" 
d="M146 1073l-23 -107h-153l22 107h-121l27 125h118l23 104h155l-22 -104h121l-27 -125h-120z" />
    <glyph glyph-name="thanthakhatlowrightthai" unicode="&#xf70e;" 
d="M190 1090q-154 0 -182 -122h-150q24 114 117 179t242 69z" />
    <glyph glyph-name="yoyingnobasethai" unicode="&#xf70f;" horiz-adv-x="1325" 
d="M556 708q-132 0 -201 -76q-19 -22 -29 -44q44 -40 26 -152l-63 -299h90l-29 -137h-258l92 438q21 93 -40 134q52 118 164 202t276 84q257 0 297 -188q17 -77 -5 -178l-42 -201q-17 -76 18 -121q36 -45 100 -45q104 0 158 91q18 32 28 75l118 549h170l-122 -564
q-46 -193 -220 -264q-144 -59 -281 -14q-112 40 -144 150q-15 56 1 128l48 232q29 132 -66 182q-34 18 -86 18z" />
    <glyph glyph-name="maihanakatleftthai" unicode="&#xf710;" 
d="M-410 968l44 202h155l-17 -72h542l-28 -130h-696z" />
    <glyph glyph-name="nikhahitleftthai" unicode="&#xf711;" 
d="M-215 1272q63 0 102 -47t25 -113t-71 -113t-106 -47q-122 0 -143 98q-15 62 24 123q39 62 104 86q32 13 65 13zM-260 1054q38 0 60 36q25 31 6 55q-19 25 -36 25q-18 0 -29 -5q-40 -18 -46 -54q-5 -36 25 -52q8 -5 20 -5z" />
    <glyph glyph-name="maitaikhuleftthai" unicode="&#xf712;" 
d="M-236 1104q46 0 56 76h118q-17 -150 -119 -190q-31 -11 -57 -11q-60 0 -93 43q-8 12 -11 26q-34 -47 -101 -63q-21 -6 -59 -6t-71 28t-41 63q-7 36 4 88q20 95 90 145q70 49 162 49h380l-24 -119h-370q-48 2 -75 -25q-26 -26 -24 -58t10 -39q9 -7 25 -7q51 0 64 76h108
q-10 -36 -2 -56t30 -20z" />
    <glyph glyph-name="maiekupperleftthai" unicode="&#xf713;" 
d="M-152 1558h154l-49 -245h-156z" />
    <glyph glyph-name="maithoupperleftthai" unicode="&#xf714;" 
d="M-236 1310h-116l26 126h-78l25 124h211l-24 -124q118 0 174 77q16 21 20 47h146q-22 -103 -122 -177q-101 -73 -262 -73z" />
    <glyph glyph-name="maitriupperleftthai" unicode="&#xf715;" 
d="M-268 1366q0 18 -2 28t-10 9q-27 0 -46 -93h-124q22 155 122 205q30 13 58 13q58 0 84 -52q43 52 108 52q84 0 92 -90q49 49 64 118h133q-17 -84 -83 -153q-67 -81 -134 -93h-106q5 25 4 59t-13 34q-24 3 -45 -93h-108q6 38 6 56z" />
    <glyph glyph-name="maichattawaupperleftthai" unicode="&#xf716;" 
d="M-30 1415l-21 -105h-152l21 105h-119l27 121h118l23 102h149l-20 -102h116l-26 -121h-116z" />
    <glyph glyph-name="thanthakhatupperleftthai" unicode="&#xf717;" 
d="M106 1336q-154 0 -178 -122h-151q25 119 117 181q92 63 239 67z" />
    <glyph glyph-name="saraulowthai" unicode="&#xf718;" 
d="M-375 -656l41 185h-74l27 129h231l-67 -314h-158z" />
    <glyph glyph-name="sarauulowthai" unicode="&#xf719;" 
d="M-448 -670q-219 0 -187 199h-73l26 129h234l-25 -114q-15 -82 53 -82q70 0 86 82l25 114h157l-24 -114q-20 -98 -86 -156t-186 -58z" />
    <glyph glyph-name="phinthulowthai" unicode="&#xf71a;" 
d="M-240 -324q49 0 74 -33q26 -33 16 -78t-51 -81q-41 -35 -76 -35q-37 0 -55 9q-60 29 -47 104q6 24 19 44q47 70 120 70z" />
    <glyph glyph-name="lochula.short" unicode="&#xf71d;" horiz-adv-x="1112" 
d="M1329 973q-53 -166 -201 -203q69 -73 2 -211l-256 -559h-186l-49 482l-246 -482h-186l-9 840h189l-29 -617l246 485h174l46 -487q18 42 33 82q16 40 65 159t54 139q4 21 8 37q14 63 -37 77q-19 6 -48 6l27 119q87 4 124 27q67 41 86 106h193z" />
    <glyph glyph-name="rulakkhangyao" unicode="&#xf881;" horiz-adv-x="1300" 
d="M738 571q0 141 -177 144q-92 2 -151 -35t-82 -82q46 -38 26 -146l-65 -315h90l-29 -137h-258l96 454q16 93 -42 128q95 216 330 265q53 11 116 11q185 0 264 -92q102 90 241 90t207 -75t38 -218l-178 -835h-168l172 806q39 174 -99 174q-121 0 -164 -130q0 -36 -8 -72
l-166 -778h-168l168 792q7 26 7 51z" />
    <glyph glyph-name="lulakkhangyao" unicode="&#xf882;" horiz-adv-x="1353" 
d="M395 496q0 -22 -6 -44l-94 -452h-250l29 137h82l67 317q16 92 -43 128q70 159 239 234q94 42 216 42q189 0 270 -94q106 92 245 92t207 -74t37 -219l-178 -835h-168l172 806q39 174 -98 174q-58 0 -102 -35t-64 -105q-2 -16 -4 -31t-4 -31l-166 -778h-170l168 792
q17 77 -18 132q-44 61 -168 62q-125 1 -204 -78q-20 -20 -28 -38q33 -40 33 -102z" />
    <glyph glyph-name="yamakkanleftthai" 
d="M-203 1082q-69 0 -99 -66q-8 -22 -14 -48h-151q26 131 123 194q34 22 76 32q58 133 266 133l-26 -129q-67 0 -93 -20t-35 -62l-6 -34h-41z" />
    <glyph glyph-name="saraamleft" horiz-adv-x="715" 
d="M-215 1272q63 0 102 -47t25 -113t-71 -113t-106 -47q-122 0 -143 98q-15 62 24 123q39 62 104 86q32 13 65 13zM-260 1054q38 0 60 36q25 31 6 55q-19 25 -36 25q-18 0 -29 -5q-40 -18 -46 -54q-5 -36 25 -52q8 -5 20 -5zM142 563q29 137 136 215q108 78 240 78t200 -75
t38 -218l-119 -563h-168l113 534q38 174 -98 174q-126 0 -166 -145h-176z" />
    <glyph glyph-name="uni0E33.alt1" horiz-adv-x="715" 
d="M-215 1272q63 0 102 -47t25 -113t-71 -113t-106 -47q-122 0 -143 98q-15 62 24 123q39 62 104 86q32 13 65 13zM-260 1054q38 0 60 36q25 31 6 55q-19 25 -36 25q-18 0 -29 -5q-40 -18 -46 -54q-5 -36 25 -52q8 -5 20 -5zM142 563q29 137 136 215q108 78 240 78t200 -75
t38 -218l-119 -563h-168l113 534q38 174 -98 174q-126 0 -166 -145h-176z" />
    <glyph glyph-name="saraithai.alt1" 
d="M-484 966l97 134h543l-29 -134h-611z" />
    <glyph glyph-name="saraiithai.alt1" 
d="M-387 1100h385l22 118h160l-53 -252h-611z" />
    <glyph glyph-name="sarauethai.alt1" 
d="M18 1063q10 0 21 4q36 13 42 42q5 29 -7 44t-28 15q-41 0 -60 -33q-6 -9 -8 -20q-6 -34 22 -48q8 -4 18 -4zM60 1262q30 0 55 -12q81 -39 61 -136q-13 -61 -65 -104q-52 -44 -111 -44h-484l97 134h268q24 110 120 150q29 12 59 12z" />
    <glyph glyph-name="saraueethai.alt1" 
d="M-387 1100h166l25 118h151l-25 -118h74l24 118h152l-53 -252h-611z" />
    <glyph glyph-name="saraithai.alt2" 
d="M-876 966l94 134h724l-28 -134h-790z" />
    <glyph glyph-name="saraiithai.alt2" 
d="M-782 1100h565l25 118h159l-53 -252h-790z" />
    <glyph glyph-name="sarauethai.alt2" 
d="M-233 1084q17 -21 45 -21t49 31q19 32 5 53q-16 21 -32 21q-42 0 -61 -33q-23 -30 -6 -51zM-97 1250q53 -25 61 -78q6 -27 -4 -72t-60 -90q-51 -44 -113 -44h-663l96 134h448q10 70 68 118q53 44 97 44q45 0 70 -12z" />
    <glyph glyph-name="saraueethai.alt2" 
d="M-780 1100h344l24 118h152l-24 -118h75l25 118h151l-53 -252h-790z" />
    <glyph glyph-name="maiekthai.alt2" 
d="M-116 1558h153l-49 -245h-156z" />
    <glyph glyph-name="maithothai.alt2" 
d="M-215 1310h-117l27 126h-78l25 124h210l-24 -124q81 0 132 38q50 34 62 86h146q-21 -103 -122 -176q-102 -74 -261 -74z" />
    <glyph glyph-name="maitrithai.alt2" 
d="M-66 1372q0 32 -14 31q-31 4 -45 -93h-109q7 46 7 60t-2 24q-3 10 -11 9q-25 0 -44 -93h-126q16 110 70 164q50 54 109 54t85 -52q43 52 107 52q63 0 85 -50q8 -16 10 -40q47 47 63 118h133q-21 -105 -126 -196q-49 -42 -93 -50h-105q6 30 6 62z" />
    <glyph glyph-name="maichattawathai.alt2" 
d="M4 1415l-18 -105h-152l20 105h-118l26 121h119l23 102h149l-23 -102h120l-27 -121h-119z" />
    <glyph glyph-name="saraithai.alt3" 
d="M-827 966l96 134h887l-29 -134h-954z" />
    <glyph glyph-name="saraiithai.alt3" 
d="M-731 1100h729l22 118h160l-53 -252h-954z" />
    <glyph glyph-name="sarauethai.alt3" 
d="M60 1262q61 0 95.5 -43.5t21.5 -104.5t-65.5 -104.5t-111.5 -43.5h-827l96 134h612q24 110 86.5 136t92.5 26zM58 1077q19 14 24 37q4 24 -8 39t-28 15q-27 0 -51 -20t-17.5 -52.5t34.5 -32.5q27 0 46 14z" />
    <glyph glyph-name="saraueethai.alt3" 
d="M-731 1100h510l25 118h151l-25 -118h74l24 118h152l-53 -252h-954z" />
    <glyph glyph-name="maiekthai.alt4" 
d="M74 1456h156l-54 -246h-156z" />
    <glyph glyph-name="maithothai.alt4" 
d="M-14 1208h-117l27 125h-78l26 125h209l-27 -125q122 3 158 51t42 74h144q-22 -103 -124.5 -176.5t-259.5 -73.5z" />
    <glyph glyph-name="maitrithai.alt4" 
d="M-129 1300q-27 0 -45 -92h-125q22 157 86.5 187.5t93.5 30.5q58 0 84 -52q43 52 107 52q86 0 94 -90q46 41 64 118h132q-22 -109 -98.5 -174t-119.5 -72h-107q11 51 5.5 71.5t-17 20.5t-23 -30t-16.5 -62h-109q8 35 8 63.5t-14 28.5z" />
    <glyph glyph-name="maichattawathai.alt4" 
d="M196 1313l-22 -105h-152l23 105h-117l25 121h117l22 102h152l-23 -102h119l-24 -121h-120z" />
    <glyph glyph-name="maiekthai.alt5" 
d="M-188 1476h155l-53 -245h-156z" />
    <glyph glyph-name="maithothai.alt5" 
d="M-274 1229h-117l27 125h-78l26 124h211l-27 -124q80 0 134 36q53 36 65 88h143q-21 -103 -122 -176q-100 -73 -262 -73z" />
    <glyph glyph-name="maitrithai.alt5" 
d="M-164 1293q0 28 -14 28q-20 2 -40 -63q-6 -16 -8 -29h-108q9 39 9 66t-13 26q-23 0 -40 -67q-4 -16 -7 -25h-125q15 107 67 162t112 55q59 0 85 -52q43 52 111 52q35 0 63 -22q27 -22 29 -68q25 20 42 60t21 58h134q-19 -78 -84 -155q-66 -77 -136 -90h-106q8 36 8 64z
" />
    <glyph glyph-name="maichattawathai.alt5" 
d="M-68 1333l-22 -104h-152l23 104h-119l24 121h120l22 102h152l-23 -102h117l-25 -121h-117z" />
    <glyph glyph-name="sarauthai.alt6" 
d="M-490 -410l40 184h-74l28 130h232l-68 -314h-158z" />
    <glyph glyph-name="sarauuthai.alt6" 
d="M-450 -424q-220 0 -189 198h-73l28 130h234l-25 -115q-20 -82 50 -82q71 0 89 82l24 115h158l-24 -115q-34 -149 -122 -181t-150 -32z" />
    <glyph glyph-name="phinthuthai.alt6" 
d="M-301 -102.5q25 -32.5 19 -68.5q-9 -56 -50 -91t-76 -35q-59 0 -85.5 32.5t-19.5 68.5t20 56.5t43 45t77 24.5t72 -32.5z" />
    <glyph glyph-name="sarauthai.alt7" 
d="M-469 -410l39 184h-74l29 130h231l-68 -314h-157z" />
    <glyph glyph-name="sarauuthai.alt7" 
d="M-553 -424q-216 0 -189 198h-73l29 130h233l-25 -115q-20 -82 50 -82t90 82l24 115h158l-24 -115q-34 -149 -122 -181t-151 -32z" />
    <glyph glyph-name="phinthuthai.alt7" 
d="M-267.5 -104.5q26.5 -34.5 19.5 -68.5q-13 -58 -53.5 -91t-75.5 -33q-58 0 -84 32.5t-20 68.5q7 36 20.5 56.5t42.5 45t77 24.5q47 0 73.5 -34.5z" />
    <glyph glyph-name="maihanakatthai.alt8" 
d="M-430 968l43 202h155l-16 -72h644l-28 -130h-798z" />
    <glyph glyph-name="maiekthai.alt8" 
d="M-160 1558h156l-52 -245h-155z" />
    <glyph glyph-name="maithothai.alt8" 
d="M-230 1310h-116l26 126h-78l26 124h210l-24 -124q118 0 174 77q16 21 20 47h146q-22 -103 -122 -177q-101 -73 -262 -73z" />
    <glyph glyph-name="maitrithai.alt8" 
d="M-207 1528q58 0 84 -52q43 52 107 52q63 0 85 -50q8 -16 9 -40q49 49 64 118h132q-16 -101 -126 -196q-49 -42 -92 -50h-105l6 56q0 37 -15 37q-8 1 -15 -9q-21 -31 -29 -84h-109q15 96 -6 93q-26 0 -45 -93h-125q22 156 123 205q29 13 57 13z" />
    <glyph glyph-name="maichattawathai.alt8" 
d="M-37 1415l-21 -105h-151l21 105h-119l27 121h118l22 102h150l-20 -102h116l-26 -121h-117z" />
    </font>
</defs>
</svg>
